<svg width="10" height="11" viewBox="0 0 10 11" fill="none" xmlns="http://www.w3.org/2000/svg">
<path d="M1 9.00644V2.60129C1 2.04079 1 1.76053 1.10908 1.54645C1.20503 1.35813 1.35813 1.20503 1.54645 1.10908C1.76053 1 2.04079 1 2.60129 1H7.40515C7.96566 1 8.24593 1 8.46 1.10908C8.64831 1.20503 8.80143 1.35813 8.89736 1.54645C9.00644 1.76053 9.00644 2.04079 9.00644 2.60129V8.00564H2.00081C1.44808 8.00564 1 8.4537 1 9.00644ZM1 9.00644C1 9.55919 1.44808 10.0072 2.00081 10.0072H9.00644M3.50201 3.00161H6.50443M3.50201 5.00322H6.50443M8.50604 8.00564V10.0072" stroke="#CCCCCC" stroke-width="1.00081" stroke-linecap="round" stroke-linejoin="round"/>
</svg>
