<svg width="46" height="46" viewBox="0 0 46 46" fill="none" xmlns="http://www.w3.org/2000/svg">
<path d="M43.0886 35.8552V21.9852C43.0886 20.6494 43.0874 19.9812 42.9251 19.3594C42.7811 18.8087 42.5449 18.2874 42.2251 17.8163C41.8641 17.2847 41.3626 16.8439 40.3571 15.9643L28.3571 5.46426C26.4906 3.83103 25.5574 3.01483 24.5071 2.70423C23.5816 2.43056 22.5951 2.43056 21.6696 2.70423C20.6201 3.01461 19.6881 3.83003 17.8245 5.46078L5.82055 15.9643C4.81522 16.8439 4.31372 17.2847 3.95287 17.8163C3.6331 18.2874 3.395 18.8087 3.25105 19.3594C3.08862 19.9812 3.08862 20.6494 3.08862 21.9852V35.8552C3.08862 38.1847 3.08862 39.3492 3.46922 40.2682C3.9767 41.4932 4.94942 42.4677 6.17457 42.9752C7.09342 43.3559 8.25827 43.3559 10.588 43.3559C12.9177 43.3559 14.0838 43.3559 15.0027 42.9752C16.2278 42.4677 17.2003 41.4934 17.7078 40.2682C18.0884 39.3494 18.0886 38.1847 18.0886 35.8549V33.3549C18.0886 30.5934 20.3271 28.3549 23.0886 28.3549C25.8501 28.3549 28.0886 30.5934 28.0886 33.3549V35.8549C28.0886 38.1847 28.0886 39.3494 28.4691 40.2682C28.9766 41.4934 29.9494 42.4677 31.1746 42.9752C32.0934 43.3559 33.2584 43.3559 35.5879 43.3559C37.9176 43.3559 39.0839 43.3559 40.0026 42.9752C41.2279 42.4677 42.2004 41.4932 42.7079 40.2682C43.0884 39.3492 43.0886 38.1847 43.0886 35.8552Z" stroke="#CCCCCC" stroke-width="5" stroke-linecap="round" stroke-linejoin="round"/>
</svg>
