<svg width="428" height="103" viewBox="0 0 428 103" fill="none" xmlns="http://www.w3.org/2000/svg">
<path d="M3.93659 66.439V69.7512H0.62439V66.439H3.93659ZM3.93659 63.1268V66.439H0.62439V63.1268H3.93659ZM3.93659 59.8146V63.1268H0.62439V59.8146H3.93659ZM3.93659 56.5024V59.8146H0.62439V56.5024H3.93659ZM3.93659 53.1902V56.5024H0.62439V53.1902H3.93659ZM3.93659 49.878V53.1902H0.62439V49.878H3.93659ZM3.93659 46.5659V49.878H0.62439V46.5659H3.93659ZM3.93659 43.2537V46.5659H0.62439V43.2537H3.93659ZM3.93659 39.9415V43.2537H0.62439V39.9415H3.93659ZM3.93659 36.6293V39.9415H0.62439V36.6293H3.93659ZM3.93659 33.3171V36.6293H0.62439V33.3171H3.93659ZM7.24878 33.3171V36.6293H3.93659V33.3171H7.24878ZM7.24878 36.6293V39.9415H3.93659V36.6293H7.24878ZM7.24878 39.9415V43.2537H3.93659V39.9415H7.24878ZM7.24878 43.2537V46.5659H3.93659V43.2537H7.24878ZM7.24878 46.5659V49.878H3.93659V46.5659H7.24878ZM7.24878 49.878V53.1902H3.93659V49.878H7.24878ZM7.24878 53.1902V56.5024H3.93659V53.1902H7.24878ZM10.561 56.5024V59.8146H7.24878V56.5024H10.561ZM10.561 59.8146V63.1268H7.24878V59.8146H10.561ZM10.561 63.1268V66.439H7.24878V63.1268H10.561ZM10.561 66.439V69.7512H7.24878V66.439H10.561ZM10.561 69.7512V73.0634H7.24878V69.7512H10.561ZM10.561 73.0634V76.3756H7.24878V73.0634H10.561ZM10.561 76.3756V79.6878H7.24878V76.3756H10.561ZM17.1854 79.6878V83H13.8732V79.6878H17.1854ZM17.1854 76.3756V79.6878H13.8732V76.3756H17.1854ZM17.1854 73.0634V76.3756H13.8732V73.0634H17.1854ZM17.1854 69.7512V73.0634H13.8732V69.7512H17.1854ZM17.1854 66.439V69.7512H13.8732V66.439H17.1854ZM17.1854 63.1268V66.439H13.8732V63.1268H17.1854ZM17.1854 59.8146V63.1268H13.8732V59.8146H17.1854ZM17.1854 56.5024V59.8146H13.8732V56.5024H17.1854ZM13.8732 56.5024V59.8146H10.561V56.5024H13.8732ZM13.8732 53.1902V56.5024H10.561V53.1902H13.8732ZM13.8732 59.8146V63.1268H10.561V59.8146H13.8732ZM13.8732 63.1268V66.439H10.561V63.1268H13.8732ZM13.8732 66.439V69.7512H10.561V66.439H13.8732ZM13.8732 69.7512V73.0634H10.561V69.7512H13.8732ZM13.8732 73.0634V76.3756H10.561V73.0634H13.8732ZM13.8732 76.3756V79.6878H10.561V76.3756H13.8732ZM7.24878 73.0634V76.3756H3.93659V73.0634H7.24878ZM7.24878 69.7512V73.0634H3.93659V69.7512H7.24878ZM7.24878 66.439V69.7512H3.93659V66.439H7.24878ZM7.24878 63.1268V66.439H3.93659V63.1268H7.24878ZM7.24878 59.8146V63.1268H3.93659V59.8146H7.24878ZM7.24878 56.5024V59.8146H3.93659V56.5024H7.24878ZM3.93659 30.0049V33.3171H0.62439V30.0049H3.93659ZM13.8732 30.0049V33.3171H10.561V30.0049H13.8732ZM13.8732 33.3171V36.6293H10.561V33.3171H13.8732ZM13.8732 36.6293V39.9415H10.561V36.6293H13.8732ZM13.8732 39.9415V43.2537H10.561V39.9415H13.8732ZM13.8732 43.2537V46.5659H10.561V43.2537H13.8732ZM17.1854 46.5659V49.878H13.8732V46.5659H17.1854ZM17.1854 49.878V53.1902H13.8732V49.878H17.1854ZM17.1854 53.1902V56.5024H13.8732V53.1902H17.1854ZM17.1854 43.2537V46.5659H13.8732V43.2537H17.1854ZM17.1854 39.9415V43.2537H13.8732V39.9415H17.1854ZM17.1854 36.6293V39.9415H13.8732V36.6293H17.1854ZM17.1854 33.3171V36.6293H13.8732V33.3171H17.1854ZM17.1854 30.0049V33.3171H13.8732V30.0049H17.1854ZM7.24878 30.0049V33.3171H3.93659V30.0049H7.24878ZM10.561 30.0049V33.3171H7.24878V30.0049H10.561ZM10.561 33.3171V36.6293H7.24878V33.3171H10.561ZM10.561 36.6293V39.9415H7.24878V36.6293H10.561ZM10.561 39.9415V43.2537H7.24878V39.9415H10.561ZM10.561 43.2537V46.5659H7.24878V43.2537H10.561ZM10.561 46.5659V49.878H7.24878V46.5659H10.561ZM10.561 49.878V53.1902H7.24878V49.878H10.561ZM10.561 53.1902V56.5024H7.24878V53.1902H10.561ZM13.8732 49.878V53.1902H10.561V49.878H13.8732ZM13.8732 46.5659V49.878H10.561V46.5659H13.8732ZM43.6829 79.6878V83H40.3707V79.6878H43.6829ZM43.6829 76.3756V79.6878H40.3707V76.3756H43.6829ZM43.6829 73.0634V76.3756H40.3707V73.0634H43.6829ZM43.6829 69.7512V73.0634H40.3707V69.7512H43.6829ZM43.6829 66.439V69.7512H40.3707V66.439H43.6829ZM43.6829 63.1268V66.439H40.3707V63.1268H43.6829ZM43.6829 59.8146V63.1268H40.3707V59.8146H43.6829ZM50.3073 59.8146V63.1268H46.9951V59.8146H50.3073ZM50.3073 63.1268V66.439H46.9951V63.1268H50.3073ZM50.3073 66.439V69.7512H46.9951V66.439H50.3073ZM50.3073 69.7512V73.0634H46.9951V69.7512H50.3073ZM50.3073 73.0634V76.3756H46.9951V73.0634H50.3073ZM50.3073 76.3756V79.6878H46.9951V76.3756H50.3073ZM56.9317 66.439V69.7512H53.6195V66.439H56.9317ZM56.9317 63.1268V66.439H53.6195V63.1268H56.9317ZM56.9317 59.8146V63.1268H53.6195V59.8146H56.9317ZM53.6195 59.8146V63.1268H50.3073V59.8146H53.6195ZM53.6195 63.1268V66.439H50.3073V63.1268H53.6195ZM53.6195 66.439V69.7512H50.3073V66.439H53.6195ZM53.6195 69.7512V73.0634H50.3073V69.7512H53.6195ZM53.6195 73.0634V76.3756H50.3073V73.0634H53.6195ZM46.9951 76.3756V79.6878H43.6829V76.3756H46.9951ZM46.9951 73.0634V76.3756H43.6829V73.0634H46.9951ZM46.9951 69.7512V73.0634H43.6829V69.7512H46.9951ZM46.9951 66.439V69.7512H43.6829V66.439H46.9951ZM46.9951 63.1268V66.439H43.6829V63.1268H46.9951ZM46.9951 59.8146V63.1268H43.6829V59.8146H46.9951ZM20.4976 79.6878V83H17.1854V79.6878H20.4976ZM23.8098 79.6878V83H20.4976V79.6878H23.8098ZM27.122 79.6878V83H23.8098V79.6878H27.122ZM30.4341 79.6878V83H27.122V79.6878H30.4341ZM37.0585 79.6878V83H33.7463V79.6878H37.0585ZM40.3707 79.6878V83H37.0585V79.6878H40.3707ZM40.3707 76.3756V79.6878H37.0585V76.3756H40.3707ZM37.0585 76.3756V79.6878H33.7463V76.3756H37.0585ZM30.4341 76.3756V79.6878H27.122V76.3756H30.4341ZM27.122 76.3756V79.6878H23.8098V76.3756H27.122ZM23.8098 76.3756V79.6878H20.4976V76.3756H23.8098ZM20.4976 76.3756V79.6878H17.1854V76.3756H20.4976ZM20.4976 73.0634V76.3756H17.1854V73.0634H20.4976ZM23.8098 73.0634V76.3756H20.4976V73.0634H23.8098ZM27.122 73.0634V76.3756H23.8098V73.0634H27.122ZM30.4341 73.0634V76.3756H27.122V73.0634H30.4341ZM37.0585 73.0634V76.3756H33.7463V73.0634H37.0585ZM40.3707 73.0634V76.3756H37.0585V73.0634H40.3707ZM40.3707 69.7512V73.0634H37.0585V69.7512H40.3707ZM37.0585 69.7512V73.0634H33.7463V69.7512H37.0585ZM30.4341 69.7512V73.0634H27.122V69.7512H30.4341ZM27.122 69.7512V73.0634H23.8098V69.7512H27.122ZM23.8098 69.7512V73.0634H20.4976V69.7512H23.8098ZM20.4976 69.7512V73.0634H17.1854V69.7512H20.4976ZM20.4976 66.439V69.7512H17.1854V66.439H20.4976ZM40.3707 66.439V69.7512H37.0585V66.439H40.3707ZM53.6195 16.7561V13.4439H56.9317V16.7561H53.6195ZM53.6195 20.0683V16.7561H56.9317V20.0683H53.6195ZM53.6195 23.3805V20.0683H56.9317V23.3805H53.6195ZM46.9951 23.3805V20.0683H50.3073V23.3805H46.9951ZM46.9951 20.0683V16.7561H50.3073V20.0683H46.9951ZM46.9951 16.7561V13.4439H50.3073V16.7561H46.9951ZM46.9951 13.4439V10.1317H50.3073V13.4439H46.9951ZM46.9951 10.1317V6.81951H50.3073V10.1317H46.9951ZM46.9951 6.81951V3.50732H50.3073V6.81951H46.9951ZM40.3707 3.50732V0.195118H43.6829V3.50732H40.3707ZM40.3707 6.81951V3.50732H43.6829V6.81951H40.3707ZM40.3707 10.1317V6.81951H43.6829V10.1317H40.3707ZM40.3707 13.4439V10.1317H43.6829V13.4439H40.3707ZM40.3707 16.7561V13.4439H43.6829V16.7561H40.3707ZM40.3707 20.0683V16.7561H43.6829V20.0683H40.3707ZM40.3707 23.3805V20.0683H43.6829V23.3805H40.3707ZM43.6829 23.3805V20.0683H46.9951V23.3805H43.6829ZM43.6829 20.0683V16.7561H46.9951V20.0683H43.6829ZM43.6829 16.7561V13.4439H46.9951V16.7561H43.6829ZM43.6829 13.4439V10.1317H46.9951V13.4439H43.6829ZM43.6829 10.1317V6.81951H46.9951V10.1317H43.6829ZM43.6829 6.81951V3.50732H46.9951V6.81951H43.6829ZM50.3073 10.1317V6.81951H53.6195V10.1317H50.3073ZM50.3073 13.4439V10.1317H53.6195V13.4439H50.3073ZM50.3073 16.7561V13.4439H53.6195V16.7561H50.3073ZM50.3073 20.0683V16.7561H53.6195V20.0683H50.3073ZM50.3073 23.3805V20.0683H53.6195V23.3805H50.3073ZM13.8732 3.50732V0.195118H17.1854V3.50732H13.8732ZM13.8732 6.81951V3.50732H17.1854V6.81951H13.8732ZM13.8732 10.1317V6.81951H17.1854V10.1317H13.8732ZM13.8732 13.4439V10.1317H17.1854V13.4439H13.8732ZM13.8732 16.7561V13.4439H17.1854V16.7561H13.8732ZM13.8732 20.0683V16.7561H17.1854V20.0683H13.8732ZM13.8732 23.3805V20.0683H17.1854V23.3805H13.8732ZM7.24878 23.3805V20.0683H10.561V23.3805H7.24878ZM7.24878 20.0683V16.7561H10.561V20.0683H7.24878ZM7.24878 16.7561V13.4439H10.561V16.7561H7.24878ZM7.24878 13.4439V10.1317H10.561V13.4439H7.24878ZM7.24878 10.1317V6.81951H10.561V10.1317H7.24878ZM7.24878 6.81951V3.50732H10.561V6.81951H7.24878ZM0.62439 16.7561V13.4439H3.93659V16.7561H0.62439ZM0.62439 20.0683V16.7561H3.93659V20.0683H0.62439ZM0.62439 23.3805V20.0683H3.93659V23.3805H0.62439ZM3.93659 23.3805V20.0683H7.24878V23.3805H3.93659ZM3.93659 20.0683V16.7561H7.24878V20.0683H3.93659ZM3.93659 16.7561V13.4439H7.24878V16.7561H3.93659ZM3.93659 13.4439V10.1317H7.24878V13.4439H3.93659ZM3.93659 10.1317V6.81951H7.24878V10.1317H3.93659ZM10.561 6.81951V3.50732H13.8732V6.81951H10.561ZM10.561 10.1317V6.81951H13.8732V10.1317H10.561ZM10.561 13.4439V10.1317H13.8732V13.4439H10.561ZM10.561 16.7561V13.4439H13.8732V16.7561H10.561ZM10.561 20.0683V16.7561H13.8732V20.0683H10.561ZM10.561 23.3805V20.0683H13.8732V23.3805H10.561ZM37.0585 3.50732V0.195118H40.3707V3.50732H37.0585ZM33.7463 3.50732V0.195118H37.0585V3.50732H33.7463ZM27.122 3.50732V0.195118H30.4341V3.50732H27.122ZM23.8098 3.50732V0.195118H27.122V3.50732H23.8098ZM20.4976 3.50732V0.195118H23.8098V3.50732H20.4976ZM17.1854 3.50732V0.195118H20.4976V3.50732H17.1854ZM17.1854 6.81951V3.50732H20.4976V6.81951H17.1854ZM20.4976 6.81951V3.50732H23.8098V6.81951H20.4976ZM23.8098 6.81951V3.50732H27.122V6.81951H23.8098ZM27.122 6.81951V3.50732H30.4341V6.81951H27.122ZM33.7463 6.81951V3.50732H37.0585V6.81951H33.7463ZM37.0585 6.81951V3.50732H40.3707V6.81951H37.0585ZM37.0585 10.1317V6.81951H40.3707V10.1317H37.0585ZM33.7463 10.1317V6.81951H37.0585V10.1317H33.7463ZM27.122 10.1317V6.81951H30.4341V10.1317H27.122ZM23.8098 10.1317V6.81951H27.122V10.1317H23.8098ZM20.4976 10.1317V6.81951H23.8098V10.1317H20.4976ZM17.1854 10.1317V6.81951H20.4976V10.1317H17.1854ZM17.1854 13.4439V10.1317H20.4976V13.4439H17.1854ZM20.4976 13.4439V10.1317H23.8098V13.4439H20.4976ZM23.8098 13.4439V10.1317H27.122V13.4439H23.8098ZM27.122 13.4439V10.1317H30.4341V13.4439H27.122ZM33.7463 13.4439V10.1317H37.0585V13.4439H33.7463ZM37.0585 13.4439V10.1317H40.3707V13.4439H37.0585ZM37.0585 16.7561V13.4439H40.3707V16.7561H37.0585ZM17.1854 16.7561V13.4439H20.4976V16.7561H17.1854ZM3.93659 26.6927V30.0049H0.62439V26.6927H3.93659ZM7.24878 26.6927V30.0049H3.93659V26.6927H7.24878ZM3.93659 23.3805V26.6927H0.62439V23.3805H3.93659ZM13.8732 23.3805V26.6927H10.561V23.3805H13.8732ZM13.8732 26.6927V30.0049H10.561V26.6927H13.8732ZM17.1854 26.6927V30.0049H13.8732V26.6927H17.1854ZM17.1854 23.3805V26.6927H13.8732V23.3805H17.1854ZM7.24878 23.3805V26.6927H3.93659V23.3805H7.24878ZM10.561 23.3805V26.6927H7.24878V23.3805H10.561ZM10.561 26.6927V30.0049H7.24878V26.6927H10.561ZM30.4341 36.6293V39.9415H27.122V36.6293H30.4341ZM30.4341 39.9415V43.2537H27.122V39.9415H30.4341ZM37.0585 39.9415V43.2537H33.7463V39.9415H37.0585ZM40.3707 39.9415V43.2537H37.0585V39.9415H40.3707ZM43.6829 39.9415V43.2537H40.3707V39.9415H43.6829ZM46.9951 39.9415V43.2537H43.6829V39.9415H46.9951ZM50.3073 39.9415V43.2537H46.9951V39.9415H50.3073ZM53.6195 39.9415V43.2537H50.3073V39.9415H53.6195ZM56.9317 36.6293V39.9415H53.6195V36.6293H56.9317ZM53.6195 36.6293V39.9415H50.3073V36.6293H53.6195ZM50.3073 36.6293V39.9415H46.9951V36.6293H50.3073ZM46.9951 36.6293V39.9415H43.6829V36.6293H46.9951ZM43.6829 36.6293V39.9415H40.3707V36.6293H43.6829ZM40.3707 36.6293V39.9415H37.0585V36.6293H40.3707ZM37.0585 36.6293V39.9415H33.7463V36.6293H37.0585ZM56.9317 39.9415V43.2537H53.6195V39.9415H56.9317ZM56.9317 43.2537V46.5659H53.6195V43.2537H56.9317ZM56.9317 46.5659V49.878H53.6195V46.5659H56.9317ZM56.9317 49.878V53.1902H53.6195V49.878H56.9317ZM56.9317 53.1902V56.5024H53.6195V53.1902H56.9317ZM56.9317 56.5024V59.8146H53.6195V56.5024H56.9317ZM53.6195 56.5024V59.8146H50.3073V56.5024H53.6195ZM50.3073 56.5024V59.8146H46.9951V56.5024H50.3073ZM46.9951 56.5024V59.8146H43.6829V56.5024H46.9951ZM43.6829 56.5024V59.8146H40.3707V56.5024H43.6829ZM43.6829 53.1902V56.5024H40.3707V53.1902H43.6829ZM46.9951 53.1902V56.5024H43.6829V53.1902H46.9951ZM50.3073 53.1902V56.5024H46.9951V53.1902H50.3073ZM53.6195 53.1902V56.5024H50.3073V53.1902H53.6195ZM53.6195 49.878V53.1902H50.3073V49.878H53.6195ZM50.3073 49.878V53.1902H46.9951V49.878H50.3073ZM46.9951 49.878V53.1902H43.6829V49.878H46.9951ZM43.6829 49.878V53.1902H40.3707V49.878H43.6829ZM30.4341 43.2537V46.5659H27.122V43.2537H30.4341ZM30.4341 46.5659V49.878H27.122V46.5659H30.4341ZM37.0585 46.5659V49.878H33.7463V46.5659H37.0585ZM40.3707 46.5659V49.878H37.0585V46.5659H40.3707ZM43.6829 46.5659V49.878H40.3707V46.5659H43.6829ZM46.9951 46.5659V49.878H43.6829V46.5659H46.9951ZM50.3073 46.5659V49.878H46.9951V46.5659H50.3073ZM53.6195 46.5659V49.878H50.3073V46.5659H53.6195ZM53.6195 43.2537V46.5659H50.3073V43.2537H53.6195ZM50.3073 43.2537V46.5659H46.9951V43.2537H50.3073ZM46.9951 43.2537V46.5659H43.6829V43.2537H46.9951ZM43.6829 43.2537V46.5659H40.3707V43.2537H43.6829ZM40.3707 43.2537V46.5659H37.0585V43.2537H40.3707ZM37.0585 43.2537V46.5659H33.7463V43.2537H37.0585ZM23.8098 66.439V69.7512H20.4976V66.439H23.8098ZM27.122 66.439V69.7512H23.8098V66.439H27.122ZM30.4341 66.439V69.7512H27.122V66.439H30.4341ZM37.0585 66.439V69.7512H33.7463V66.439H37.0585ZM40.3707 63.1268V66.439H37.0585V63.1268H40.3707ZM20.4976 63.1268V66.439H17.1854V63.1268H20.4976ZM23.8098 13.4439V16.7561H20.4976V13.4439H23.8098ZM27.122 13.4439V16.7561H23.8098V13.4439H27.122ZM30.4341 13.4439V16.7561H27.122V13.4439H30.4341ZM37.0585 13.4439V16.7561H33.7463V13.4439H37.0585ZM20.4976 16.7561V20.0683H17.1854V16.7561H20.4976ZM40.3707 16.7561V20.0683H37.0585V16.7561H40.3707ZM43.6829 23.3805V26.6927H40.3707V23.3805H43.6829ZM46.9951 23.3805V26.6927H43.6829V23.3805H46.9951ZM50.3073 23.3805V26.6927H46.9951V23.3805H50.3073ZM53.6195 23.3805V26.6927H50.3073V23.3805H53.6195ZM56.9317 23.3805V26.6927H53.6195V23.3805H56.9317ZM30.4341 49.878V53.1902H27.122V49.878H30.4341ZM37.0585 49.878V53.1902H33.7463V49.878H37.0585ZM40.3707 49.878V53.1902H37.0585V49.878H40.3707ZM33.7463 0.195118V3.50732H30.4341V0.195118H33.7463ZM33.7463 3.50732V6.81951H30.4341V3.50732H33.7463ZM33.7463 6.81951V10.1317H30.4341V6.81951H33.7463ZM33.7463 10.1317V13.4439H30.4341V10.1317H33.7463ZM33.7463 13.4439V16.7561H30.4341V13.4439H33.7463ZM33.7463 36.6293V39.9415H30.4341V36.6293H33.7463ZM33.7463 39.9415V43.2537H30.4341V39.9415H33.7463ZM33.7463 43.2537V46.5659H30.4341V43.2537H33.7463ZM33.7463 46.5659V49.878H30.4341V46.5659H33.7463ZM33.7463 49.878V53.1902H30.4341V49.878H33.7463ZM33.7463 66.439V69.7512H30.4341V66.439H33.7463ZM33.7463 69.7512V73.0634H30.4341V69.7512H33.7463ZM33.7463 73.0634V76.3756H30.4341V73.0634H33.7463ZM33.7463 76.3756V79.6878H30.4341V76.3756H33.7463ZM33.7463 79.6878V83H30.4341V79.6878H33.7463ZM73.428 0.195118V3.50732H70.1158V0.195118H73.428ZM73.428 3.50732V6.81951H70.1158V3.50732H73.428ZM73.428 6.81951V10.1317H70.1158V6.81951H73.428ZM83.3646 0.195118V3.50732H80.0524V0.195118H83.3646ZM83.3646 3.50732V6.81951H80.0524V3.50732H83.3646ZM83.3646 6.81951V10.1317H80.0524V6.81951H83.3646ZM86.6768 6.81951V10.1317H83.3646V6.81951H86.6768ZM86.6768 3.50732V6.81951H83.3646V3.50732H86.6768ZM86.6768 0.195118V3.50732H83.3646V0.195118H86.6768ZM80.0524 0.195118V3.50732H76.7402V0.195118H80.0524ZM76.7402 0.195118V3.50732H73.428V0.195118H76.7402ZM76.7402 3.50732V6.81951H73.428V3.50732H76.7402ZM80.0524 3.50732V6.81951H76.7402V3.50732H80.0524ZM80.0524 6.81951V10.1317H76.7402V6.81951H80.0524ZM76.7402 6.81951V10.1317H73.428V6.81951H76.7402ZM73.428 10.1317V13.4439H70.1158V10.1317H73.428ZM76.7402 10.1317V13.4439H73.428V10.1317H76.7402ZM80.0524 10.1317V13.4439H76.7402V10.1317H80.0524ZM83.3646 10.1317V13.4439H80.0524V10.1317H83.3646ZM86.6768 10.1317V13.4439H83.3646V10.1317H86.6768ZM73.428 79.6878V83H70.1158V79.6878H73.428ZM73.428 76.3756V79.6878H70.1158V76.3756H73.428ZM73.428 73.0634V76.3756H70.1158V73.0634H73.428ZM73.428 69.7512V73.0634H70.1158V69.7512H73.428ZM73.428 66.439V69.7512H70.1158V66.439H73.428ZM73.428 63.1268V66.439H70.1158V63.1268H73.428ZM73.428 59.8146V63.1268H70.1158V59.8146H73.428ZM73.428 56.5024V59.8146H70.1158V56.5024H73.428ZM73.428 53.1902V56.5024H70.1158V53.1902H73.428ZM73.428 49.878V53.1902H70.1158V49.878H73.428ZM73.428 46.5659V49.878H70.1158V46.5659H73.428ZM73.428 43.2537V46.5659H70.1158V43.2537H73.428ZM73.428 39.9415V43.2537H70.1158V39.9415H73.428ZM73.428 36.6293V39.9415H70.1158V36.6293H73.428ZM73.428 33.3171V36.6293H70.1158V33.3171H73.428ZM76.7402 33.3171V36.6293H73.428V33.3171H76.7402ZM76.7402 36.6293V39.9415H73.428V36.6293H76.7402ZM76.7402 39.9415V43.2537H73.428V39.9415H76.7402ZM76.7402 43.2537V46.5659H73.428V43.2537H76.7402ZM76.7402 46.5659V49.878H73.428V46.5659H76.7402ZM76.7402 49.878V53.1902H73.428V49.878H76.7402ZM76.7402 53.1902V56.5024H73.428V53.1902H76.7402ZM80.0524 56.5024V59.8146H76.7402V56.5024H80.0524ZM80.0524 59.8146V63.1268H76.7402V59.8146H80.0524ZM80.0524 63.1268V66.439H76.7402V63.1268H80.0524ZM80.0524 66.439V69.7512H76.7402V66.439H80.0524ZM80.0524 69.7512V73.0634H76.7402V69.7512H80.0524ZM80.0524 73.0634V76.3756H76.7402V73.0634H80.0524ZM80.0524 76.3756V79.6878H76.7402V76.3756H80.0524ZM80.0524 79.6878V83H76.7402V79.6878H80.0524ZM83.3646 79.6878V83H80.0524V79.6878H83.3646ZM86.6768 79.6878V83H83.3646V79.6878H86.6768ZM86.6768 76.3756V79.6878H83.3646V76.3756H86.6768ZM86.6768 73.0634V76.3756H83.3646V73.0634H86.6768ZM86.6768 69.7512V73.0634H83.3646V69.7512H86.6768ZM86.6768 66.439V69.7512H83.3646V66.439H86.6768ZM86.6768 63.1268V66.439H83.3646V63.1268H86.6768ZM86.6768 59.8146V63.1268H83.3646V59.8146H86.6768ZM86.6768 56.5024V59.8146H83.3646V56.5024H86.6768ZM83.3646 56.5024V59.8146H80.0524V56.5024H83.3646ZM83.3646 53.1902V56.5024H80.0524V53.1902H83.3646ZM83.3646 59.8146V63.1268H80.0524V59.8146H83.3646ZM83.3646 63.1268V66.439H80.0524V63.1268H83.3646ZM83.3646 66.439V69.7512H80.0524V66.439H83.3646ZM83.3646 69.7512V73.0634H80.0524V69.7512H83.3646ZM83.3646 73.0634V76.3756H80.0524V73.0634H83.3646ZM83.3646 76.3756V79.6878H80.0524V76.3756H83.3646ZM76.7402 79.6878V83H73.428V79.6878H76.7402ZM76.7402 76.3756V79.6878H73.428V76.3756H76.7402ZM76.7402 73.0634V76.3756H73.428V73.0634H76.7402ZM76.7402 69.7512V73.0634H73.428V69.7512H76.7402ZM76.7402 66.439V69.7512H73.428V66.439H76.7402ZM76.7402 63.1268V66.439H73.428V63.1268H76.7402ZM76.7402 59.8146V63.1268H73.428V59.8146H76.7402ZM76.7402 56.5024V59.8146H73.428V56.5024H76.7402ZM73.428 26.6927V30.0049H70.1158V26.6927H73.428ZM73.428 30.0049V33.3171H70.1158V30.0049H73.428ZM83.3646 26.6927V30.0049H80.0524V26.6927H83.3646ZM83.3646 30.0049V33.3171H80.0524V30.0049H83.3646ZM83.3646 33.3171V36.6293H80.0524V33.3171H83.3646ZM83.3646 36.6293V39.9415H80.0524V36.6293H83.3646ZM83.3646 39.9415V43.2537H80.0524V39.9415H83.3646ZM83.3646 43.2537V46.5659H80.0524V43.2537H83.3646ZM86.6768 46.5659V49.878H83.3646V46.5659H86.6768ZM86.6768 49.878V53.1902H83.3646V49.878H86.6768ZM86.6768 53.1902V56.5024H83.3646V53.1902H86.6768ZM86.6768 43.2537V46.5659H83.3646V43.2537H86.6768ZM86.6768 39.9415V43.2537H83.3646V39.9415H86.6768ZM86.6768 36.6293V39.9415H83.3646V36.6293H86.6768ZM86.6768 33.3171V36.6293H83.3646V33.3171H86.6768ZM86.6768 30.0049V33.3171H83.3646V30.0049H86.6768ZM86.6768 26.6927V30.0049H83.3646V26.6927H86.6768ZM76.7402 26.6927V30.0049H73.428V26.6927H76.7402ZM76.7402 30.0049V33.3171H73.428V30.0049H76.7402ZM80.0524 26.6927V30.0049H76.7402V26.6927H80.0524ZM80.0524 30.0049V33.3171H76.7402V30.0049H80.0524ZM80.0524 33.3171V36.6293H76.7402V33.3171H80.0524ZM80.0524 36.6293V39.9415H76.7402V36.6293H80.0524ZM80.0524 39.9415V43.2537H76.7402V39.9415H80.0524ZM80.0524 43.2537V46.5659H76.7402V43.2537H80.0524ZM80.0524 46.5659V49.878H76.7402V46.5659H80.0524ZM80.0524 49.878V53.1902H76.7402V49.878H80.0524ZM80.0524 53.1902V56.5024H76.7402V53.1902H80.0524ZM83.3646 49.878V53.1902H80.0524V49.878H83.3646ZM83.3646 46.5659V49.878H80.0524V46.5659H83.3646ZM83.3646 23.3805V26.6927H80.0524V23.3805H83.3646ZM86.6768 23.3805V26.6927H83.3646V23.3805H86.6768ZM80.0524 23.3805V26.6927H76.7402V23.3805H80.0524ZM76.7402 23.3805V26.6927H73.428V23.3805H76.7402ZM73.428 23.3805V26.6927H70.1158V23.3805H73.428ZM116.516 6.81951V10.1317H113.203V6.81951H116.516ZM116.516 10.1317V13.4439H113.203V10.1317H116.516ZM116.516 13.4439V16.7561H113.203V13.4439H116.516ZM116.516 16.7561V20.0683H113.203V16.7561H116.516ZM116.516 20.0683V23.3805H113.203V20.0683H116.516ZM116.516 23.3805V26.6927H113.203V23.3805H116.516ZM116.516 26.6927V30.0049H113.203V26.6927H116.516ZM116.516 30.0049V33.3171H113.203V30.0049H116.516ZM119.828 30.0049V33.3171H116.516V30.0049H119.828ZM123.14 30.0049V33.3171H119.828V30.0049H123.14ZM126.452 30.0049V33.3171H123.14V30.0049H126.452ZM129.764 30.0049V33.3171H126.452V30.0049H129.764ZM116.516 36.6293V39.9415H113.203V36.6293H116.516ZM113.203 36.6293V39.9415H109.891V36.6293H113.203ZM113.203 33.3171V36.6293H109.891V33.3171H113.203ZM116.516 33.3171V36.6293H113.203V33.3171H116.516ZM116.516 39.9415V43.2537H113.203V39.9415H116.516ZM113.203 39.9415V43.2537H109.891V39.9415H113.203ZM109.891 39.9415V43.2537H106.579V39.9415H109.891ZM106.579 39.9415V43.2537H103.267V39.9415H106.579ZM103.267 39.9415V43.2537H99.9547V39.9415H103.267ZM96.6425 30.0049V33.3171H93.3303V30.0049H96.6425ZM99.9547 30.0049V33.3171H96.6425V30.0049H99.9547ZM103.267 30.0049V33.3171H99.9547V30.0049H103.267ZM106.579 30.0049V33.3171H103.267V30.0049H106.579ZM109.891 30.0049V33.3171H106.579V30.0049H109.891ZM113.203 30.0049V33.3171H109.891V30.0049H113.203ZM109.891 36.6293V39.9415H106.579V36.6293H109.891ZM109.891 33.3171V36.6293H106.579V33.3171H109.891ZM106.579 33.3171V36.6293H103.267V33.3171H106.579ZM103.267 33.3171V36.6293H99.9547V33.3171H103.267ZM103.267 36.6293V39.9415H99.9547V36.6293H103.267ZM106.579 36.6293V39.9415H103.267V36.6293H106.579ZM113.203 10.1317V13.4439H109.891V10.1317H113.203ZM113.203 13.4439V16.7561H109.891V13.4439H113.203ZM109.891 13.4439V16.7561H106.579V13.4439H109.891ZM109.891 16.7561V20.0683H106.579V16.7561H109.891ZM109.891 20.0683V23.3805H106.579V20.0683H109.891ZM106.579 16.7561V20.0683H103.267V16.7561H106.579ZM106.579 20.0683V23.3805H103.267V20.0683H106.579ZM103.267 20.0683V23.3805H99.9547V20.0683H103.267ZM103.267 23.3805V26.6927H99.9547V23.3805H103.267ZM103.267 26.6927V30.0049H99.9547V26.6927H103.267ZM109.891 26.6927V30.0049H106.579V26.6927H109.891ZM113.203 26.6927V30.0049H109.891V26.6927H113.203ZM113.203 23.3805V26.6927H109.891V23.3805H113.203ZM113.203 20.0683V23.3805H109.891V20.0683H113.203ZM113.203 16.7561V20.0683H109.891V16.7561H113.203ZM109.891 23.3805V26.6927H106.579V23.3805H109.891ZM106.579 26.6927V30.0049H103.267V26.6927H106.579ZM106.579 23.3805V26.6927H103.267V23.3805H106.579ZM129.764 69.7512V73.0634H126.452V69.7512H129.764ZM129.764 73.0634V76.3756H126.452V73.0634H129.764ZM129.764 79.6878V83H126.452V79.6878H129.764ZM126.452 79.6878V83H123.14V79.6878H126.452ZM123.14 79.6878V83H119.828V79.6878H123.14ZM119.828 79.6878V83H116.516V79.6878H119.828ZM116.516 79.6878V83H113.203V79.6878H116.516ZM116.516 76.3756V79.6878H113.203V76.3756H116.516ZM113.203 76.3756V79.6878H109.891V76.3756H113.203ZM109.891 76.3756V79.6878H106.579V76.3756H109.891ZM109.891 73.0634V76.3756H106.579V73.0634H109.891ZM106.579 73.0634V76.3756H103.267V73.0634H106.579ZM106.579 69.7512V73.0634H103.267V69.7512H106.579ZM106.579 66.439V69.7512H103.267V66.439H106.579ZM103.267 66.439V69.7512H99.9547V66.439H103.267ZM103.267 63.1268V66.439H99.9547V63.1268H103.267ZM103.267 59.8146V63.1268H99.9547V59.8146H103.267ZM103.267 56.5024V59.8146H99.9547V56.5024H103.267ZM103.267 53.1902V56.5024H99.9547V53.1902H103.267ZM103.267 49.878V53.1902H99.9547V49.878H103.267ZM103.267 46.5659V49.878H99.9547V46.5659H103.267ZM103.267 43.2537V46.5659H99.9547V43.2537H103.267ZM106.579 43.2537V46.5659H103.267V43.2537H106.579ZM109.891 43.2537V46.5659H106.579V43.2537H109.891ZM113.203 43.2537V46.5659H109.891V43.2537H113.203ZM116.516 43.2537V46.5659H113.203V43.2537H116.516ZM116.516 46.5659V49.878H113.203V46.5659H116.516ZM116.516 49.878V53.1902H113.203V49.878H116.516ZM116.516 53.1902V56.5024H113.203V53.1902H116.516ZM116.516 56.5024V59.8146H113.203V56.5024H116.516ZM116.516 59.8146V63.1268H113.203V59.8146H116.516ZM116.516 63.1268V66.439H113.203V63.1268H116.516ZM116.516 66.439V69.7512H113.203V66.439H116.516ZM119.828 66.439V69.7512H116.516V66.439H119.828ZM119.828 69.7512V73.0634H116.516V69.7512H119.828ZM123.14 69.7512V73.0634H119.828V69.7512H123.14ZM123.14 73.0634V76.3756H119.828V73.0634H123.14ZM126.452 73.0634V76.3756H123.14V73.0634H126.452ZM126.452 69.7512V73.0634H123.14V69.7512H126.452ZM129.764 76.3756V79.6878H126.452V76.3756H129.764ZM126.452 76.3756V79.6878H123.14V76.3756H126.452ZM123.14 76.3756V79.6878H119.828V76.3756H123.14ZM119.828 76.3756V79.6878H116.516V76.3756H119.828ZM119.828 73.0634V76.3756H116.516V73.0634H119.828ZM116.516 73.0634V76.3756H113.203V73.0634H116.516ZM116.516 69.7512V73.0634H113.203V69.7512H116.516ZM113.203 69.7512V73.0634H109.891V69.7512H113.203ZM113.203 73.0634V76.3756H109.891V73.0634H113.203ZM109.891 69.7512V73.0634H106.579V69.7512H109.891ZM113.203 66.439V69.7512H109.891V66.439H113.203ZM113.203 63.1268V66.439H109.891V63.1268H113.203ZM109.891 66.439V69.7512H106.579V66.439H109.891ZM109.891 63.1268V66.439H106.579V63.1268H109.891ZM113.203 59.8146V63.1268H109.891V59.8146H113.203ZM113.203 56.5024V59.8146H109.891V56.5024H113.203ZM113.203 53.1902V56.5024H109.891V53.1902H113.203ZM113.203 49.878V53.1902H109.891V49.878H113.203ZM113.203 46.5659V49.878H109.891V46.5659H113.203ZM109.891 46.5659V49.878H106.579V46.5659H109.891ZM106.579 46.5659V49.878H103.267V46.5659H106.579ZM106.579 49.878V53.1902H103.267V49.878H106.579ZM106.579 53.1902V56.5024H103.267V53.1902H106.579ZM106.579 56.5024V59.8146H103.267V56.5024H106.579ZM106.579 59.8146V63.1268H103.267V59.8146H106.579ZM106.579 63.1268V66.439H103.267V63.1268H106.579ZM109.891 59.8146V63.1268H106.579V59.8146H109.891ZM109.891 56.5024V59.8146H106.579V56.5024H109.891ZM109.891 53.1902V56.5024H106.579V53.1902H109.891ZM109.891 49.878V53.1902H106.579V49.878H109.891ZM129.764 23.3805V26.6927H126.452V23.3805H129.764ZM126.452 23.3805V26.6927H123.14V23.3805H126.452ZM126.452 26.6927V30.0049H123.14V26.6927H126.452ZM129.764 26.6927V30.0049H126.452V26.6927H129.764ZM123.14 26.6927V30.0049H119.828V26.6927H123.14ZM119.828 26.6927V30.0049H116.516V26.6927H119.828ZM119.828 23.3805V26.6927H116.516V23.3805H119.828ZM123.14 23.3805V26.6927H119.828V23.3805H123.14ZM103.267 16.7561V20.0683H99.9547V16.7561H103.267ZM106.579 13.4439V16.7561H103.267V13.4439H106.579ZM109.891 10.1317V13.4439H106.579V10.1317H109.891ZM113.203 6.81951V10.1317H109.891V6.81951H113.203ZM99.9547 23.3805V26.6927H96.6425V23.3805H99.9547ZM99.9547 26.6927V30.0049H96.6425V26.6927H99.9547ZM96.6425 26.6927V30.0049H93.3303V26.6927H96.6425ZM96.6425 23.3805V26.6927H93.3303V23.3805H96.6425ZM116.516 3.50732V6.81951H113.203V3.50732H116.516ZM96.6425 33.3171V36.6293H93.3303V33.3171H96.6425ZM99.9547 33.3171V36.6293H96.6425V33.3171H99.9547ZM119.828 33.3171V36.6293H116.516V33.3171H119.828ZM123.14 33.3171V36.6293H119.828V33.3171H123.14ZM126.452 33.3171V36.6293H123.14V33.3171H126.452ZM129.764 33.3171V36.6293H126.452V33.3171H129.764ZM143.052 66.439V69.7512H139.74V66.439H143.052ZM143.052 63.1268V66.439H139.74V63.1268H143.052ZM143.052 59.8146V63.1268H139.74V59.8146H143.052ZM143.052 56.5024V59.8146H139.74V56.5024H143.052ZM143.052 33.3171V36.6293H139.74V33.3171H143.052ZM146.364 33.3171V36.6293H143.052V33.3171H146.364ZM146.364 36.6293V39.9415H143.052V36.6293H146.364ZM146.364 39.9415V43.2537H143.052V39.9415H146.364ZM149.676 56.5024V59.8146H146.364V56.5024H149.676ZM149.676 59.8146V63.1268H146.364V59.8146H149.676ZM149.676 63.1268V66.439H146.364V63.1268H149.676ZM149.676 66.439V69.7512H146.364V66.439H149.676ZM149.676 69.7512V73.0634H146.364V69.7512H149.676ZM149.676 73.0634V76.3756H146.364V73.0634H149.676ZM149.676 76.3756V79.6878H146.364V76.3756H149.676ZM156.301 79.6878V83H152.989V79.6878H156.301ZM156.301 76.3756V79.6878H152.989V76.3756H156.301ZM156.301 73.0634V76.3756H152.989V73.0634H156.301ZM156.301 69.7512V73.0634H152.989V69.7512H156.301ZM156.301 66.439V69.7512H152.989V66.439H156.301ZM156.301 63.1268V66.439H152.989V63.1268H156.301ZM156.301 59.8146V63.1268H152.989V59.8146H156.301ZM156.301 56.5024V59.8146H152.989V56.5024H156.301ZM152.989 56.5024V59.8146H149.676V56.5024H152.989ZM152.989 59.8146V63.1268H149.676V59.8146H152.989ZM152.989 63.1268V66.439H149.676V63.1268H152.989ZM152.989 66.439V69.7512H149.676V66.439H152.989ZM152.989 69.7512V73.0634H149.676V69.7512H152.989ZM152.989 73.0634V76.3756H149.676V73.0634H152.989ZM152.989 76.3756V79.6878H149.676V76.3756H152.989ZM146.364 73.0634V76.3756H143.052V73.0634H146.364ZM146.364 69.7512V73.0634H143.052V69.7512H146.364ZM146.364 66.439V69.7512H143.052V66.439H146.364ZM146.364 63.1268V66.439H143.052V63.1268H146.364ZM146.364 59.8146V63.1268H143.052V59.8146H146.364ZM146.364 56.5024V59.8146H143.052V56.5024H146.364ZM143.052 30.0049V33.3171H139.74V30.0049H143.052ZM152.989 30.0049V33.3171H149.676V30.0049H152.989ZM152.989 33.3171V36.6293H149.676V33.3171H152.989ZM152.989 36.6293V39.9415H149.676V36.6293H152.989ZM152.989 39.9415V43.2537H149.676V39.9415H152.989ZM152.989 43.2537V46.5659H149.676V43.2537H152.989ZM156.301 46.5659V49.878H152.989V46.5659H156.301ZM156.301 43.2537V46.5659H152.989V43.2537H156.301ZM156.301 39.9415V43.2537H152.989V39.9415H156.301ZM156.301 36.6293V39.9415H152.989V36.6293H156.301ZM156.301 33.3171V36.6293H152.989V33.3171H156.301ZM156.301 30.0049V33.3171H152.989V30.0049H156.301ZM146.364 30.0049V33.3171H143.052V30.0049H146.364ZM149.676 30.0049V33.3171H146.364V30.0049H149.676ZM149.676 33.3171V36.6293H146.364V33.3171H149.676ZM149.676 36.6293V39.9415H146.364V36.6293H149.676ZM149.676 39.9415V43.2537H146.364V39.9415H149.676ZM149.676 43.2537V46.5659H146.364V43.2537H149.676ZM182.798 79.6878V83H179.486V79.6878H182.798ZM182.798 76.3756V79.6878H179.486V76.3756H182.798ZM182.798 73.0634V76.3756H179.486V73.0634H182.798ZM182.798 69.7512V73.0634H179.486V69.7512H182.798ZM182.798 66.439V69.7512H179.486V66.439H182.798ZM182.798 63.1268V66.439H179.486V63.1268H182.798ZM182.798 59.8146V63.1268H179.486V59.8146H182.798ZM182.798 56.5024V59.8146H179.486V56.5024H182.798ZM182.798 53.1902V56.5024H179.486V53.1902H182.798ZM182.798 49.878V53.1902H179.486V49.878H182.798ZM182.798 46.5659V49.878H179.486V46.5659H182.798ZM182.798 43.2537V46.5659H179.486V43.2537H182.798ZM182.798 39.9415V43.2537H179.486V39.9415H182.798ZM182.798 36.6293V39.9415H179.486V36.6293H182.798ZM182.798 33.3171V36.6293H179.486V33.3171H182.798ZM186.111 36.6293V39.9415H182.798V36.6293H186.111ZM186.111 39.9415V43.2537H182.798V39.9415H186.111ZM186.111 43.2537V46.5659H182.798V43.2537H186.111ZM186.111 46.5659V49.878H182.798V46.5659H186.111ZM186.111 49.878V53.1902H182.798V49.878H186.111ZM186.111 53.1902V56.5024H182.798V53.1902H186.111ZM189.423 56.5024V59.8146H186.111V56.5024H189.423ZM189.423 59.8146V63.1268H186.111V59.8146H189.423ZM189.423 63.1268V66.439H186.111V63.1268H189.423ZM189.423 66.439V69.7512H186.111V66.439H189.423ZM189.423 69.7512V73.0634H186.111V69.7512H189.423ZM189.423 73.0634V76.3756H186.111V73.0634H189.423ZM189.423 76.3756V79.6878H186.111V76.3756H189.423ZM196.047 66.439V69.7512H192.735V66.439H196.047ZM196.047 63.1268V66.439H192.735V63.1268H196.047ZM196.047 59.8146V63.1268H192.735V59.8146H196.047ZM196.047 56.5024V59.8146H192.735V56.5024H196.047ZM192.735 56.5024V59.8146H189.423V56.5024H192.735ZM192.735 53.1902V56.5024H189.423V53.1902H192.735ZM192.735 59.8146V63.1268H189.423V59.8146H192.735ZM192.735 63.1268V66.439H189.423V63.1268H192.735ZM192.735 66.439V69.7512H189.423V66.439H192.735ZM192.735 69.7512V73.0634H189.423V69.7512H192.735ZM192.735 73.0634V76.3756H189.423V73.0634H192.735ZM186.111 76.3756V79.6878H182.798V76.3756H186.111ZM186.111 73.0634V76.3756H182.798V73.0634H186.111ZM186.111 69.7512V73.0634H182.798V69.7512H186.111ZM186.111 66.439V69.7512H182.798V66.439H186.111ZM186.111 63.1268V66.439H182.798V63.1268H186.111ZM186.111 59.8146V63.1268H182.798V59.8146H186.111ZM186.111 56.5024V59.8146H182.798V56.5024H186.111ZM192.735 43.2537V46.5659H189.423V43.2537H192.735ZM196.047 46.5659V49.878H192.735V46.5659H196.047ZM196.047 49.878V53.1902H192.735V49.878H196.047ZM196.047 53.1902V56.5024H192.735V53.1902H196.047ZM189.423 36.6293V39.9415H186.111V36.6293H189.423ZM189.423 39.9415V43.2537H186.111V39.9415H189.423ZM189.423 43.2537V46.5659H186.111V43.2537H189.423ZM189.423 46.5659V49.878H186.111V46.5659H189.423ZM189.423 49.878V53.1902H186.111V49.878H189.423ZM189.423 53.1902V56.5024H186.111V53.1902H189.423ZM192.735 49.878V53.1902H189.423V49.878H192.735ZM192.735 46.5659V49.878H189.423V46.5659H192.735ZM159.613 79.6878V83H156.301V79.6878H159.613ZM162.925 79.6878V83H159.613V79.6878H162.925ZM166.237 79.6878V83H162.925V79.6878H166.237ZM172.862 79.6878V83H169.55V79.6878H172.862ZM176.174 79.6878V83H172.862V79.6878H176.174ZM179.486 79.6878V83H176.174V79.6878H179.486ZM179.486 76.3756V79.6878H176.174V76.3756H179.486ZM176.174 76.3756V79.6878H172.862V76.3756H176.174ZM172.862 76.3756V79.6878H169.55V76.3756H172.862ZM166.237 76.3756V79.6878H162.925V76.3756H166.237ZM162.925 76.3756V79.6878H159.613V76.3756H162.925ZM159.613 76.3756V79.6878H156.301V76.3756H159.613ZM159.613 73.0634V76.3756H156.301V73.0634H159.613ZM162.925 73.0634V76.3756H159.613V73.0634H162.925ZM166.237 73.0634V76.3756H162.925V73.0634H166.237ZM172.862 73.0634V76.3756H169.55V73.0634H172.862ZM176.174 73.0634V76.3756H172.862V73.0634H176.174ZM179.486 73.0634V76.3756H176.174V73.0634H179.486ZM179.486 69.7512V73.0634H176.174V69.7512H179.486ZM176.174 69.7512V73.0634H172.862V69.7512H176.174ZM172.862 69.7512V73.0634H169.55V69.7512H172.862ZM166.237 69.7512V73.0634H162.925V69.7512H166.237ZM162.925 69.7512V73.0634H159.613V69.7512H162.925ZM159.613 69.7512V73.0634H156.301V69.7512H159.613ZM159.613 66.439V69.7512H156.301V66.439H159.613ZM179.486 66.439V69.7512H176.174V66.439H179.486ZM192.735 16.7561V13.4439H196.047V16.7561H192.735ZM192.735 20.0683V16.7561H196.047V20.0683H192.735ZM192.735 23.3805V20.0683H196.047V23.3805H192.735ZM186.111 23.3805V20.0683H189.423V23.3805H186.111ZM186.111 20.0683V16.7561H189.423V20.0683H186.111ZM186.111 16.7561V13.4439H189.423V16.7561H186.111ZM186.111 13.4439V10.1317H189.423V13.4439H186.111ZM186.111 10.1317V6.81951H189.423V10.1317H186.111ZM186.111 6.81951V3.50732H189.423V6.81951H186.111ZM179.486 3.50732V0.195118H182.798V3.50732H179.486ZM179.486 6.81951V3.50732H182.798V6.81951H179.486ZM179.486 10.1317V6.81951H182.798V10.1317H179.486ZM179.486 13.4439V10.1317H182.798V13.4439H179.486ZM179.486 16.7561V13.4439H182.798V16.7561H179.486ZM179.486 20.0683V16.7561H182.798V20.0683H179.486ZM179.486 23.3805V20.0683H182.798V23.3805H179.486ZM182.798 23.3805V20.0683H186.111V23.3805H182.798ZM182.798 20.0683V16.7561H186.111V20.0683H182.798ZM182.798 16.7561V13.4439H186.111V16.7561H182.798ZM182.798 13.4439V10.1317H186.111V13.4439H182.798ZM182.798 10.1317V6.81951H186.111V10.1317H182.798ZM182.798 6.81951V3.50732H186.111V6.81951H182.798ZM189.423 10.1317V6.81951H192.735V10.1317H189.423ZM189.423 13.4439V10.1317H192.735V13.4439H189.423ZM189.423 16.7561V13.4439H192.735V16.7561H189.423ZM189.423 20.0683V16.7561H192.735V20.0683H189.423ZM189.423 23.3805V20.0683H192.735V23.3805H189.423ZM152.989 3.50732V0.195118H156.301V3.50732H152.989ZM152.989 6.81951V3.50732H156.301V6.81951H152.989ZM152.989 10.1317V6.81951H156.301V10.1317H152.989ZM152.989 13.4439V10.1317H156.301V13.4439H152.989ZM152.989 16.7561V13.4439H156.301V16.7561H152.989ZM152.989 20.0683V16.7561H156.301V20.0683H152.989ZM152.989 23.3805V20.0683H156.301V23.3805H152.989ZM146.364 23.3805V20.0683H149.676V23.3805H146.364ZM146.364 20.0683V16.7561H149.676V20.0683H146.364ZM146.364 16.7561V13.4439H149.676V16.7561H146.364ZM146.364 13.4439V10.1317H149.676V13.4439H146.364ZM146.364 10.1317V6.81951H149.676V10.1317H146.364ZM146.364 6.81951V3.50732H149.676V6.81951H146.364ZM139.74 16.7561V13.4439H143.052V16.7561H139.74ZM139.74 20.0683V16.7561H143.052V20.0683H139.74ZM139.74 23.3805V20.0683H143.052V23.3805H139.74ZM143.052 23.3805V20.0683H146.364V23.3805H143.052ZM143.052 20.0683V16.7561H146.364V20.0683H143.052ZM143.052 16.7561V13.4439H146.364V16.7561H143.052ZM143.052 13.4439V10.1317H146.364V13.4439H143.052ZM143.052 10.1317V6.81951H146.364V10.1317H143.052ZM149.676 6.81951V3.50732H152.989V6.81951H149.676ZM149.676 10.1317V6.81951H152.989V10.1317H149.676ZM149.676 13.4439V10.1317H152.989V13.4439H149.676ZM149.676 16.7561V13.4439H152.989V16.7561H149.676ZM149.676 20.0683V16.7561H152.989V20.0683H149.676ZM149.676 23.3805V20.0683H152.989V23.3805H149.676ZM176.174 3.50732V0.195118H179.486V3.50732H176.174ZM172.862 3.50732V0.195118H176.174V3.50732H172.862ZM169.55 3.50732V0.195118H172.862V3.50732H169.55ZM162.925 3.50732V0.195118H166.237V3.50732H162.925ZM159.613 3.50732V0.195118H162.925V3.50732H159.613ZM156.301 3.50732V0.195118H159.613V3.50732H156.301ZM156.301 6.81951V3.50732H159.613V6.81951H156.301ZM159.613 6.81951V3.50732H162.925V6.81951H159.613ZM162.925 6.81951V3.50732H166.237V6.81951H162.925ZM169.55 6.81951V3.50732H172.862V6.81951H169.55ZM172.862 6.81951V3.50732H176.174V6.81951H172.862ZM176.174 6.81951V3.50732H179.486V6.81951H176.174ZM176.174 10.1317V6.81951H179.486V10.1317H176.174ZM172.862 10.1317V6.81951H176.174V10.1317H172.862ZM169.55 10.1317V6.81951H172.862V10.1317H169.55ZM162.925 10.1317V6.81951H166.237V10.1317H162.925ZM159.613 10.1317V6.81951H162.925V10.1317H159.613ZM156.301 10.1317V6.81951H159.613V10.1317H156.301ZM156.301 13.4439V10.1317H159.613V13.4439H156.301ZM159.613 13.4439V10.1317H162.925V13.4439H159.613ZM162.925 13.4439V10.1317H166.237V13.4439H162.925ZM169.55 13.4439V10.1317H172.862V13.4439H169.55ZM172.862 13.4439V10.1317H176.174V13.4439H172.862ZM176.174 13.4439V10.1317H179.486V13.4439H176.174ZM176.174 16.7561V13.4439H179.486V16.7561H176.174ZM156.301 16.7561V13.4439H159.613V16.7561H156.301ZM143.052 26.6927V30.0049H139.74V26.6927H143.052ZM146.364 26.6927V30.0049H143.052V26.6927H146.364ZM143.052 23.3805V26.6927H139.74V23.3805H143.052ZM152.989 23.3805V26.6927H149.676V23.3805H152.989ZM152.989 26.6927V30.0049H149.676V26.6927H152.989ZM156.301 26.6927V30.0049H152.989V26.6927H156.301ZM156.301 23.3805V26.6927H152.989V23.3805H156.301ZM146.364 23.3805V26.6927H143.052V23.3805H146.364ZM149.676 23.3805V26.6927H146.364V23.3805H149.676ZM149.676 26.6927V30.0049H146.364V26.6927H149.676ZM162.925 66.439V69.7512H159.613V66.439H162.925ZM166.237 66.439V69.7512H162.925V66.439H166.237ZM172.862 66.439V69.7512H169.55V66.439H172.862ZM176.174 66.439V69.7512H172.862V66.439H176.174ZM179.486 63.1268V66.439H176.174V63.1268H179.486ZM159.613 63.1268V66.439H156.301V63.1268H159.613ZM162.925 13.4439V16.7561H159.613V13.4439H162.925ZM166.237 13.4439V16.7561H162.925V13.4439H166.237ZM172.862 13.4439V16.7561H169.55V13.4439H172.862ZM176.174 13.4439V16.7561H172.862V13.4439H176.174ZM179.486 16.7561V20.0683H176.174V16.7561H179.486ZM159.613 16.7561V20.0683H156.301V16.7561H159.613ZM166.237 39.9415V43.2537H162.925V39.9415H166.237ZM172.862 39.9415V43.2537H169.55V39.9415H172.862ZM176.174 39.9415V43.2537H172.862V39.9415H176.174ZM179.486 39.9415V43.2537H176.174V39.9415H179.486ZM179.486 43.2537V46.5659H176.174V43.2537H179.486ZM176.174 43.2537V46.5659H172.862V43.2537H176.174ZM172.862 43.2537V46.5659H169.55V43.2537H172.862ZM166.237 43.2537V46.5659H162.925V43.2537H166.237ZM166.237 33.3171V36.6293H162.925V33.3171H166.237ZM172.862 33.3171V36.6293H169.55V33.3171H172.862ZM176.174 33.3171V36.6293H172.862V33.3171H176.174ZM179.486 33.3171V36.6293H176.174V33.3171H179.486ZM179.486 36.6293V39.9415H176.174V36.6293H179.486ZM176.174 36.6293V39.9415H172.862V36.6293H176.174ZM172.862 36.6293V39.9415H169.55V36.6293H172.862ZM166.237 36.6293V39.9415H162.925V36.6293H166.237ZM166.237 46.5659V49.878H162.925V46.5659H166.237ZM172.862 46.5659V49.878H169.55V46.5659H172.862ZM176.174 46.5659V49.878H172.862V46.5659H176.174ZM179.486 46.5659V49.878H176.174V46.5659H179.486ZM192.735 39.9415V43.2537H189.423V39.9415H192.735ZM179.486 49.878V53.1902H176.174V49.878H179.486ZM159.613 33.3171V36.6293H156.301V33.3171H159.613ZM162.925 33.3171V36.6293H159.613V33.3171H162.925ZM159.613 30.0049V33.3171H156.301V30.0049H159.613ZM162.925 36.6293V39.9415H159.613V36.6293H162.925ZM162.925 39.9415V43.2537H159.613V39.9415H162.925ZM162.925 43.2537V46.5659H159.613V43.2537H162.925ZM162.925 46.5659V49.878H159.613V46.5659H162.925ZM159.613 46.5659V49.878H156.301V46.5659H159.613ZM159.613 43.2537V46.5659H156.301V43.2537H159.613ZM159.613 39.9415V43.2537H156.301V39.9415H159.613ZM159.613 36.6293V39.9415H156.301V36.6293H159.613ZM169.55 0.195118V3.50732H166.237V0.195118H169.55ZM169.55 3.50732V6.81951H166.237V3.50732H169.55ZM169.55 6.81951V10.1317H166.237V6.81951H169.55ZM169.55 10.1317V13.4439H166.237V10.1317H169.55ZM169.55 13.4439V16.7561H166.237V13.4439H169.55ZM169.55 33.3171V36.6293H166.237V33.3171H169.55ZM169.55 36.6293V39.9415H166.237V36.6293H169.55ZM169.55 39.9415V43.2537H166.237V39.9415H169.55ZM169.55 43.2537V46.5659H166.237V43.2537H169.55ZM169.55 46.5659V49.878H166.237V46.5659H169.55ZM169.55 66.439V69.7512H166.237V66.439H169.55ZM169.55 69.7512V73.0634H166.237V69.7512H169.55ZM169.55 73.0634V76.3756H166.237V73.0634H169.55ZM169.55 76.3756V79.6878H166.237V76.3756H169.55ZM169.55 79.6878V83H166.237V79.6878H169.55ZM225.792 6.81951V10.1317H222.48V6.81951H225.792ZM225.792 10.1317V13.4439H222.48V10.1317H225.792ZM225.792 13.4439V16.7561H222.48V13.4439H225.792ZM225.792 16.7561V20.0683H222.48V16.7561H225.792ZM225.792 20.0683V23.3805H222.48V20.0683H225.792ZM225.792 23.3805V26.6927H222.48V23.3805H225.792ZM225.792 26.6927V30.0049H222.48V26.6927H225.792ZM225.792 30.0049V33.3171H222.48V30.0049H225.792ZM229.104 30.0049V33.3171H225.792V30.0049H229.104ZM232.417 30.0049V33.3171H229.104V30.0049H232.417ZM235.729 30.0049V33.3171H232.417V30.0049H235.729ZM239.041 30.0049V33.3171H235.729V30.0049H239.041ZM225.792 36.6293V39.9415H222.48V36.6293H225.792ZM222.48 36.6293V39.9415H219.168V36.6293H222.48ZM222.48 33.3171V36.6293H219.168V33.3171H222.48ZM225.792 33.3171V36.6293H222.48V33.3171H225.792ZM225.792 39.9415V43.2537H222.48V39.9415H225.792ZM222.48 39.9415V43.2537H219.168V39.9415H222.48ZM219.168 39.9415V43.2537H215.856V39.9415H219.168ZM215.856 39.9415V43.2537H212.543V39.9415H215.856ZM212.543 39.9415V43.2537H209.231V39.9415H212.543ZM205.919 30.0049V33.3171H202.607V30.0049H205.919ZM209.231 30.0049V33.3171H205.919V30.0049H209.231ZM212.543 30.0049V33.3171H209.231V30.0049H212.543ZM215.856 30.0049V33.3171H212.543V30.0049H215.856ZM219.168 30.0049V33.3171H215.856V30.0049H219.168ZM222.48 30.0049V33.3171H219.168V30.0049H222.48ZM219.168 36.6293V39.9415H215.856V36.6293H219.168ZM219.168 33.3171V36.6293H215.856V33.3171H219.168ZM215.856 33.3171V36.6293H212.543V33.3171H215.856ZM212.543 33.3171V36.6293H209.231V33.3171H212.543ZM212.543 36.6293V39.9415H209.231V36.6293H212.543ZM215.856 36.6293V39.9415H212.543V36.6293H215.856ZM222.48 10.1317V13.4439H219.168V10.1317H222.48ZM222.48 13.4439V16.7561H219.168V13.4439H222.48ZM219.168 13.4439V16.7561H215.856V13.4439H219.168ZM219.168 16.7561V20.0683H215.856V16.7561H219.168ZM219.168 20.0683V23.3805H215.856V20.0683H219.168ZM215.856 16.7561V20.0683H212.543V16.7561H215.856ZM215.856 20.0683V23.3805H212.543V20.0683H215.856ZM212.543 20.0683V23.3805H209.231V20.0683H212.543ZM212.543 23.3805V26.6927H209.231V23.3805H212.543ZM212.543 26.6927V30.0049H209.231V26.6927H212.543ZM219.168 26.6927V30.0049H215.856V26.6927H219.168ZM222.48 26.6927V30.0049H219.168V26.6927H222.48ZM222.48 23.3805V26.6927H219.168V23.3805H222.48ZM222.48 20.0683V23.3805H219.168V20.0683H222.48ZM222.48 16.7561V20.0683H219.168V16.7561H222.48ZM219.168 23.3805V26.6927H215.856V23.3805H219.168ZM215.856 26.6927V30.0049H212.543V26.6927H215.856ZM215.856 23.3805V26.6927H212.543V23.3805H215.856ZM239.041 69.7512V73.0634H235.729V69.7512H239.041ZM239.041 73.0634V76.3756H235.729V73.0634H239.041ZM239.041 79.6878V83H235.729V79.6878H239.041ZM235.729 79.6878V83H232.417V79.6878H235.729ZM232.417 79.6878V83H229.104V79.6878H232.417ZM229.104 79.6878V83H225.792V79.6878H229.104ZM225.792 79.6878V83H222.48V79.6878H225.792ZM225.792 76.3756V79.6878H222.48V76.3756H225.792ZM222.48 76.3756V79.6878H219.168V76.3756H222.48ZM219.168 76.3756V79.6878H215.856V76.3756H219.168ZM219.168 73.0634V76.3756H215.856V73.0634H219.168ZM215.856 73.0634V76.3756H212.543V73.0634H215.856ZM215.856 69.7512V73.0634H212.543V69.7512H215.856ZM215.856 66.439V69.7512H212.543V66.439H215.856ZM212.543 66.439V69.7512H209.231V66.439H212.543ZM212.543 63.1268V66.439H209.231V63.1268H212.543ZM212.543 59.8146V63.1268H209.231V59.8146H212.543ZM212.543 56.5024V59.8146H209.231V56.5024H212.543ZM212.543 53.1902V56.5024H209.231V53.1902H212.543ZM212.543 49.878V53.1902H209.231V49.878H212.543ZM212.543 46.5659V49.878H209.231V46.5659H212.543ZM212.543 43.2537V46.5659H209.231V43.2537H212.543ZM215.856 43.2537V46.5659H212.543V43.2537H215.856ZM219.168 43.2537V46.5659H215.856V43.2537H219.168ZM222.48 43.2537V46.5659H219.168V43.2537H222.48ZM225.792 43.2537V46.5659H222.48V43.2537H225.792ZM225.792 46.5659V49.878H222.48V46.5659H225.792ZM225.792 49.878V53.1902H222.48V49.878H225.792ZM225.792 53.1902V56.5024H222.48V53.1902H225.792ZM225.792 56.5024V59.8146H222.48V56.5024H225.792ZM225.792 59.8146V63.1268H222.48V59.8146H225.792ZM225.792 63.1268V66.439H222.48V63.1268H225.792ZM225.792 66.439V69.7512H222.48V66.439H225.792ZM229.104 66.439V69.7512H225.792V66.439H229.104ZM229.104 69.7512V73.0634H225.792V69.7512H229.104ZM232.417 69.7512V73.0634H229.104V69.7512H232.417ZM232.417 73.0634V76.3756H229.104V73.0634H232.417ZM235.729 73.0634V76.3756H232.417V73.0634H235.729ZM235.729 69.7512V73.0634H232.417V69.7512H235.729ZM239.041 76.3756V79.6878H235.729V76.3756H239.041ZM235.729 76.3756V79.6878H232.417V76.3756H235.729ZM232.417 76.3756V79.6878H229.104V76.3756H232.417ZM229.104 76.3756V79.6878H225.792V76.3756H229.104ZM229.104 73.0634V76.3756H225.792V73.0634H229.104ZM225.792 73.0634V76.3756H222.48V73.0634H225.792ZM225.792 69.7512V73.0634H222.48V69.7512H225.792ZM222.48 69.7512V73.0634H219.168V69.7512H222.48ZM222.48 73.0634V76.3756H219.168V73.0634H222.48ZM219.168 69.7512V73.0634H215.856V69.7512H219.168ZM222.48 66.439V69.7512H219.168V66.439H222.48ZM222.48 63.1268V66.439H219.168V63.1268H222.48ZM219.168 66.439V69.7512H215.856V66.439H219.168ZM219.168 63.1268V66.439H215.856V63.1268H219.168ZM222.48 59.8146V63.1268H219.168V59.8146H222.48ZM222.48 56.5024V59.8146H219.168V56.5024H222.48ZM222.48 53.1902V56.5024H219.168V53.1902H222.48ZM222.48 49.878V53.1902H219.168V49.878H222.48ZM222.48 46.5659V49.878H219.168V46.5659H222.48ZM219.168 46.5659V49.878H215.856V46.5659H219.168ZM215.856 46.5659V49.878H212.543V46.5659H215.856ZM215.856 49.878V53.1902H212.543V49.878H215.856ZM215.856 53.1902V56.5024H212.543V53.1902H215.856ZM215.856 56.5024V59.8146H212.543V56.5024H215.856ZM215.856 59.8146V63.1268H212.543V59.8146H215.856ZM215.856 63.1268V66.439H212.543V63.1268H215.856ZM219.168 59.8146V63.1268H215.856V59.8146H219.168ZM219.168 56.5024V59.8146H215.856V56.5024H219.168ZM219.168 53.1902V56.5024H215.856V53.1902H219.168ZM219.168 49.878V53.1902H215.856V49.878H219.168ZM239.041 23.3805V26.6927H235.729V23.3805H239.041ZM235.729 23.3805V26.6927H232.417V23.3805H235.729ZM235.729 26.6927V30.0049H232.417V26.6927H235.729ZM239.041 26.6927V30.0049H235.729V26.6927H239.041ZM232.417 26.6927V30.0049H229.104V26.6927H232.417ZM229.104 26.6927V30.0049H225.792V26.6927H229.104ZM229.104 23.3805V26.6927H225.792V23.3805H229.104ZM232.417 23.3805V26.6927H229.104V23.3805H232.417ZM212.543 16.7561V20.0683H209.231V16.7561H212.543ZM215.856 13.4439V16.7561H212.543V13.4439H215.856ZM219.168 10.1317V13.4439H215.856V10.1317H219.168ZM222.48 6.81951V10.1317H219.168V6.81951H222.48ZM209.231 23.3805V26.6927H205.919V23.3805H209.231ZM209.231 26.6927V30.0049H205.919V26.6927H209.231ZM205.919 26.6927V30.0049H202.607V26.6927H205.919ZM205.919 23.3805V26.6927H202.607V23.3805H205.919ZM225.792 3.50732V6.81951H222.48V3.50732H225.792ZM205.919 33.3171V36.6293H202.607V33.3171H205.919ZM209.231 33.3171V36.6293H205.919V33.3171H209.231ZM229.104 33.3171V36.6293H225.792V33.3171H229.104ZM232.417 33.3171V36.6293H229.104V33.3171H232.417ZM235.729 33.3171V36.6293H232.417V33.3171H235.729ZM239.041 33.3171V36.6293H235.729V33.3171H239.041ZM295.387 23.3805V20.0683H298.699V23.3805H295.387ZM295.387 26.6927V23.3805H298.699V26.6927H295.387ZM295.387 30.0049V26.6927H298.699V30.0049H295.387ZM295.387 33.3171V30.0049H298.699V33.3171H295.387ZM295.387 36.6293V33.3171H298.699V36.6293H295.387ZM295.387 39.9415V36.6293H298.699V39.9415H295.387ZM295.387 43.2537V39.9415H298.699V43.2537H295.387ZM295.387 46.5659V43.2537H298.699V46.5659H295.387ZM295.387 49.878V46.5659H298.699V49.878H295.387ZM295.387 53.1902V49.878H298.699V53.1902H295.387ZM295.387 56.5024V53.1902H298.699V56.5024H295.387ZM295.387 59.8146V56.5024H298.699V59.8146H295.387ZM295.387 63.1268V59.8146H298.699V63.1268H295.387ZM295.387 66.439V63.1268H298.699V66.439H295.387ZM295.387 69.7512V66.439H298.699V69.7512H295.387ZM292.075 69.7512V66.439H295.387V69.7512H292.075ZM292.075 66.439V63.1268H295.387V66.439H292.075ZM292.075 63.1268V59.8146H295.387V63.1268H292.075ZM292.075 59.8146V56.5024H295.387V59.8146H292.075ZM292.075 56.5024V53.1902H295.387V56.5024H292.075ZM292.075 53.1902V49.878H295.387V53.1902H292.075ZM292.075 49.878V46.5659H295.387V49.878H292.075ZM288.763 46.5659V43.2537H292.075V46.5659H288.763ZM288.763 43.2537V39.9415H292.075V43.2537H288.763ZM288.763 39.9415V36.6293H292.075V39.9415H288.763ZM288.763 36.6293V33.3171H292.075V36.6293H288.763ZM288.763 33.3171V30.0049H292.075V33.3171H288.763ZM288.763 30.0049V26.6927H292.075V30.0049H288.763ZM288.763 26.6927V23.3805H292.075V26.6927H288.763ZM288.763 23.3805V20.0683H292.075V23.3805H288.763ZM285.451 23.3805V20.0683H288.763V23.3805H285.451ZM282.138 23.3805V20.0683H285.451V23.3805H282.138ZM282.138 26.6927V23.3805H285.451V26.6927H282.138ZM282.138 30.0049V26.6927H285.451V30.0049H282.138ZM282.138 33.3171V30.0049H285.451V33.3171H282.138ZM282.138 36.6293V33.3171H285.451V36.6293H282.138ZM282.138 39.9415V36.6293H285.451V39.9415H282.138ZM282.138 43.2537V39.9415H285.451V43.2537H282.138ZM282.138 46.5659V43.2537H285.451V46.5659H282.138ZM285.451 46.5659V43.2537H288.763V46.5659H285.451ZM285.451 49.878V46.5659H288.763V49.878H285.451ZM285.451 43.2537V39.9415H288.763V43.2537H285.451ZM285.451 39.9415V36.6293H288.763V39.9415H285.451ZM285.451 36.6293V33.3171H288.763V36.6293H285.451ZM285.451 33.3171V30.0049H288.763V33.3171H285.451ZM285.451 30.0049V26.6927H288.763V30.0049H285.451ZM285.451 26.6927V23.3805H288.763V26.6927H285.451ZM292.075 23.3805V20.0683H295.387V23.3805H292.075ZM292.075 26.6927V23.3805H295.387V26.6927H292.075ZM292.075 30.0049V26.6927H295.387V30.0049H292.075ZM292.075 33.3171V30.0049H295.387V33.3171H292.075ZM292.075 36.6293V33.3171H295.387V36.6293H292.075ZM292.075 39.9415V36.6293H295.387V39.9415H292.075ZM292.075 43.2537V39.9415H295.387V43.2537H292.075ZM292.075 46.5659V43.2537H295.387V46.5659H292.075ZM295.387 83V79.6878H298.699V83H295.387ZM295.387 79.6878V76.3756H298.699V79.6878H295.387ZM295.387 76.3756V73.0634H298.699V76.3756H295.387ZM295.387 73.0634V69.7512H298.699V73.0634H295.387ZM285.451 79.6878V76.3756H288.763V79.6878H285.451ZM285.451 76.3756V73.0634H288.763V76.3756H285.451ZM285.451 73.0634V69.7512H288.763V73.0634H285.451ZM285.451 69.7512V66.439H288.763V69.7512H285.451ZM285.451 66.439V63.1268H288.763V66.439H285.451ZM285.451 63.1268V59.8146H288.763V63.1268H285.451ZM285.451 59.8146V56.5024H288.763V59.8146H285.451ZM282.138 56.5024V53.1902H285.451V56.5024H282.138ZM282.138 53.1902V49.878H285.451V53.1902H282.138ZM282.138 49.878V46.5659H285.451V49.878H282.138ZM282.138 59.8146V56.5024H285.451V59.8146H282.138ZM282.138 63.1268V59.8146H285.451V63.1268H282.138ZM282.138 66.439V63.1268H285.451V66.439H282.138ZM282.138 69.7512V66.439H285.451V69.7512H282.138ZM282.138 73.0634V69.7512H285.451V73.0634H282.138ZM282.138 76.3756V73.0634H285.451V76.3756H282.138ZM282.138 79.6878V76.3756H285.451V79.6878H282.138ZM282.138 83V79.6878H285.451V83H282.138ZM285.451 83V79.6878H288.763V83H285.451ZM288.763 83V79.6878H292.075V83H288.763ZM288.763 79.6878V76.3756H292.075V79.6878H288.763ZM292.075 76.3756V73.0634H295.387V76.3756H292.075ZM292.075 73.0634V69.7512H295.387V73.0634H292.075ZM292.075 79.6878V76.3756H295.387V79.6878H292.075ZM292.075 83V79.6878H295.387V83H292.075ZM288.763 76.3756V73.0634H292.075V76.3756H288.763ZM288.763 73.0634V69.7512H292.075V73.0634H288.763ZM288.763 69.7512V66.439H292.075V69.7512H288.763ZM288.763 66.439V63.1268H292.075V66.439H288.763ZM288.763 63.1268V59.8146H292.075V63.1268H288.763ZM288.763 59.8146V56.5024H292.075V59.8146H288.763ZM288.763 56.5024V53.1902H292.075V56.5024H288.763ZM288.763 53.1902V49.878H292.075V53.1902H288.763ZM288.763 49.878V46.5659H292.075V49.878H288.763ZM285.451 53.1902V49.878H288.763V53.1902H285.451ZM285.451 56.5024V53.1902H288.763V56.5024H285.451ZM258.953 23.3805V20.0683H262.265V23.3805H258.953ZM255.641 23.3805V20.0683H258.953V23.3805H255.641ZM252.329 23.3805V20.0683H255.641V23.3805H252.329ZM249.016 23.3805V20.0683H252.329V23.3805H249.016ZM245.704 26.6927V23.3805H249.016V26.6927H245.704ZM245.704 30.0049V26.6927H249.016V30.0049H245.704ZM245.704 23.3805V20.0683H249.016V23.3805H245.704ZM249.016 26.6927V23.3805H252.329V26.6927H249.016ZM252.329 26.6927V23.3805H255.641V26.6927H252.329ZM255.641 26.6927V23.3805H258.953V26.6927H255.641ZM258.953 26.6927V23.3805H262.265V26.6927H258.953ZM258.953 30.0049V26.6927H262.265V30.0049H258.953ZM258.953 33.3171V30.0049H262.265V33.3171H258.953ZM255.641 33.3171V30.0049H258.953V33.3171H255.641ZM252.329 33.3171V30.0049H255.641V33.3171H252.329ZM249.016 33.3171V30.0049H252.329V33.3171H249.016ZM245.704 33.3171V30.0049H249.016V33.3171H245.704ZM249.016 30.0049V26.6927H252.329V30.0049H249.016ZM252.329 30.0049V26.6927H255.641V30.0049H252.329ZM255.641 30.0049V26.6927H258.953V30.0049H255.641ZM245.704 69.7512V66.439H249.016V69.7512H245.704ZM249.016 69.7512V66.439H252.329V69.7512H249.016ZM255.641 69.7512V66.439H258.953V69.7512H255.641ZM255.641 66.439V63.1268H258.953V66.439H255.641ZM255.641 63.1268V59.8146H258.953V63.1268H255.641ZM258.953 59.8146V56.5024H262.265V59.8146H258.953ZM258.953 56.5024V53.1902H262.265V56.5024H258.953ZM258.953 53.1902V49.878H262.265V53.1902H258.953ZM258.953 49.878V46.5659H262.265V49.878H258.953ZM258.953 46.5659V43.2537H262.265V46.5659H258.953ZM258.953 43.2537V39.9415H262.265V43.2537H258.953ZM258.953 39.9415V36.6293H262.265V39.9415H258.953ZM258.953 36.6293V33.3171H262.265V36.6293H258.953ZM255.641 36.6293V33.3171H258.953V36.6293H255.641ZM252.329 36.6293V33.3171H255.641V36.6293H252.329ZM249.016 36.6293V33.3171H252.329V36.6293H249.016ZM245.704 36.6293V33.3171H249.016V36.6293H245.704ZM245.704 39.9415V36.6293H249.016V39.9415H245.704ZM245.704 46.5659V43.2537H249.016V46.5659H245.704ZM245.704 49.878V46.5659H249.016V49.878H245.704ZM245.704 53.1902V49.878H249.016V53.1902H245.704ZM245.704 56.5024V53.1902H249.016V56.5024H245.704ZM245.704 59.8146V56.5024H249.016V59.8146H245.704ZM245.704 63.1268V59.8146H249.016V63.1268H245.704ZM245.704 66.439V63.1268H249.016V66.439H245.704ZM249.016 53.1902V49.878H252.329V53.1902H249.016ZM249.016 46.5659V43.2537H252.329V46.5659H249.016ZM249.016 43.2537V39.9415H252.329V43.2537H249.016ZM249.016 39.9415V36.6293H252.329V39.9415H249.016ZM245.704 43.2537V39.9415H249.016V43.2537H245.704ZM249.016 59.8146V56.5024H252.329V59.8146H249.016ZM252.329 59.8146V56.5024H255.641V59.8146H252.329ZM255.641 59.8146V56.5024H258.953V59.8146H255.641ZM255.641 56.5024V53.1902H258.953V56.5024H255.641ZM255.641 53.1902V49.878H258.953V53.1902H255.641ZM255.641 49.878V46.5659H258.953V49.878H255.641ZM255.641 46.5659V43.2537H258.953V46.5659H255.641ZM255.641 43.2537V39.9415H258.953V43.2537H255.641ZM255.641 39.9415V36.6293H258.953V39.9415H255.641ZM252.329 39.9415V36.6293H255.641V39.9415H252.329ZM252.329 43.2537V39.9415H255.641V43.2537H252.329ZM252.329 46.5659V43.2537H255.641V46.5659H252.329ZM252.329 49.878V46.5659H255.641V49.878H252.329ZM252.329 53.1902V49.878H255.641V53.1902H252.329ZM252.329 56.5024V53.1902H255.641V56.5024H252.329ZM249.016 56.5024V53.1902H252.329V56.5024H249.016ZM249.016 49.878V46.5659H252.329V49.878H249.016ZM249.016 63.1268V59.8146H252.329V63.1268H249.016ZM249.016 66.439V63.1268H252.329V66.439H249.016ZM252.329 66.439V63.1268H255.641V66.439H252.329ZM252.329 63.1268V59.8146H255.641V63.1268H252.329ZM258.953 63.1268V59.8146H262.265V63.1268H258.953ZM258.953 66.439V63.1268H262.265V66.439H258.953ZM258.953 69.7512V66.439H262.265V69.7512H258.953ZM252.329 69.7512V66.439H255.641V69.7512H252.329ZM258.953 83V79.6878H262.265V83H258.953ZM258.953 79.6878V76.3756H262.265V79.6878H258.953ZM255.641 79.6878V76.3756H258.953V79.6878H255.641ZM252.329 79.6878V76.3756H255.641V79.6878H252.329ZM252.329 76.3756V73.0634H255.641V76.3756H252.329ZM249.016 76.3756V73.0634H252.329V76.3756H249.016ZM249.016 73.0634V69.7512H252.329V73.0634H249.016ZM252.329 73.0634V69.7512H255.641V73.0634H252.329ZM255.641 73.0634V69.7512H258.953V73.0634H255.641ZM255.641 76.3756V73.0634H258.953V76.3756H255.641ZM258.953 76.3756V73.0634H262.265V76.3756H258.953ZM262.265 76.3756V73.0634H265.577V76.3756H262.265ZM262.265 73.0634V69.7512H265.577V73.0634H262.265ZM258.953 73.0634V69.7512H262.265V73.0634H258.953ZM262.265 69.7512V66.439H265.577V69.7512H262.265ZM265.577 73.0634V69.7512H268.89V73.0634H265.577ZM265.577 76.3756V73.0634H268.89V76.3756H265.577ZM265.577 79.6878V76.3756H268.89V79.6878H265.577ZM265.577 83V79.6878H268.89V83H265.577ZM262.265 83V79.6878H265.577V83H262.265ZM262.265 79.6878V76.3756H265.577V79.6878H262.265ZM268.89 83V79.6878H272.202V83H268.89ZM268.89 79.6878V76.3756H272.202V79.6878H268.89ZM268.89 76.3756V73.0634H272.202V76.3756H268.89ZM268.89 73.0634V69.7512H272.202V73.0634H268.89ZM272.202 83V79.6878H275.514V83H272.202ZM272.202 79.6878V76.3756H275.514V79.6878H272.202ZM275.514 79.6878V76.3756H278.826V79.6878H275.514ZM275.514 76.3756V73.0634H278.826V76.3756H275.514ZM278.826 76.3756V73.0634H282.138V76.3756H278.826ZM278.826 73.0634V69.7512H282.138V73.0634H278.826ZM275.514 73.0634V69.7512H278.826V73.0634H275.514ZM272.202 73.0634V69.7512H275.514V73.0634H272.202ZM272.202 76.3756V73.0634H275.514V76.3756H272.202ZM275.514 83V79.6878H278.826V83H275.514ZM278.826 79.6878V76.3756H282.138V79.6878H278.826ZM282.138 66.439V69.7512H278.826V66.439H282.138ZM345.132 30.0049V33.3171H341.819V30.0049H345.132ZM345.132 26.6927V30.0049H341.819V26.6927H345.132ZM345.132 23.3805V26.6927H341.819V23.3805H345.132ZM341.819 23.3805V26.6927H338.507V23.3805H341.819ZM341.819 20.0683V23.3805H338.507V20.0683H341.819ZM341.819 26.6927V30.0049H338.507V26.6927H341.819ZM338.507 26.6927V30.0049H335.195V26.6927H338.507ZM338.507 30.0049V33.3171H335.195V30.0049H338.507ZM341.819 30.0049V33.3171H338.507V30.0049H341.819ZM335.195 30.0049V33.3171H331.883V30.0049H335.195ZM335.195 26.6927V30.0049H331.883V26.6927H335.195ZM335.195 23.3805V26.6927H331.883V23.3805H335.195ZM335.195 20.0683V23.3805H331.883V20.0683H335.195ZM338.507 20.0683V23.3805H335.195V20.0683H338.507ZM338.507 23.3805V26.6927H335.195V23.3805H338.507ZM331.883 20.0683V23.3805H328.571V20.0683H331.883ZM328.571 20.0683V23.3805H325.258V20.0683H328.571ZM325.258 20.0683V23.3805H321.946V20.0683H325.258ZM325.258 23.3805V26.6927H321.946V23.3805H325.258ZM325.258 26.6927V30.0049H321.946V26.6927H325.258ZM325.258 30.0049V33.3171H321.946V30.0049H325.258ZM328.571 30.0049V33.3171H325.258V30.0049H328.571ZM331.883 30.0049V33.3171H328.571V30.0049H331.883ZM331.883 26.6927V30.0049H328.571V26.6927H331.883ZM331.883 23.3805V26.6927H328.571V23.3805H331.883ZM328.571 23.3805V26.6927H325.258V23.3805H328.571ZM328.571 26.6927V30.0049H325.258V26.6927H328.571ZM321.946 26.6927V30.0049H318.634V26.6927H321.946ZM321.946 23.3805V26.6927H318.634V23.3805H321.946ZM318.634 23.3805V26.6927H315.322V23.3805H318.634ZM318.634 26.6927V30.0049H315.322V26.6927H318.634ZM315.322 26.6927V30.0049H312.01V26.6927H315.322ZM315.322 30.0049V33.3171H312.01V30.0049H315.322ZM315.322 33.3171V36.6293H312.01V33.3171H315.322ZM318.634 33.3171V36.6293H315.322V33.3171H318.634ZM318.634 30.0049V33.3171H315.322V30.0049H318.634ZM321.946 30.0049V33.3171H318.634V30.0049H321.946ZM321.946 33.3171V36.6293H318.634V33.3171H321.946ZM325.258 33.3171V36.6293H321.946V33.3171H325.258ZM328.571 33.3171V36.6293H325.258V33.3171H328.571ZM312.01 33.3171V36.6293H308.697V33.3171H312.01ZM312.01 36.6293V39.9415H308.697V36.6293H312.01ZM312.01 39.9415V43.2537H308.697V39.9415H312.01ZM312.01 43.2537V46.5659H308.697V43.2537H312.01ZM312.01 46.5659V49.878H308.697V46.5659H312.01ZM312.01 49.878V53.1902H308.697V49.878H312.01ZM312.01 53.1902V56.5024H308.697V53.1902H312.01ZM312.01 56.5024V59.8146H308.697V56.5024H312.01ZM312.01 59.8146V63.1268H308.697V59.8146H312.01ZM312.01 63.1268V66.439H308.697V63.1268H312.01ZM315.322 63.1268V66.439H312.01V63.1268H315.322ZM315.322 66.439V69.7512H312.01V66.439H315.322ZM312.01 66.439V69.7512H308.697V66.439H312.01ZM318.634 66.439V69.7512H315.322V66.439H318.634ZM321.946 66.439V69.7512H318.634V66.439H321.946ZM325.258 66.439V69.7512H321.946V66.439H325.258ZM328.571 66.439V69.7512H325.258V66.439H328.571ZM325.258 63.1268V66.439H321.946V63.1268H325.258ZM325.258 59.8146V63.1268H321.946V59.8146H325.258ZM325.258 56.5024V59.8146H321.946V56.5024H325.258ZM325.258 53.1902V56.5024H321.946V53.1902H325.258ZM325.258 49.878V53.1902H321.946V49.878H325.258ZM325.258 46.5659V49.878H321.946V46.5659H325.258ZM325.258 43.2537V46.5659H321.946V43.2537H325.258ZM325.258 39.9415V43.2537H321.946V39.9415H325.258ZM325.258 36.6293V39.9415H321.946V36.6293H325.258ZM321.946 36.6293V39.9415H318.634V36.6293H321.946ZM318.634 36.6293V39.9415H315.322V36.6293H318.634ZM315.322 36.6293V39.9415H312.01V36.6293H315.322ZM315.322 39.9415V43.2537H312.01V39.9415H315.322ZM315.322 43.2537V46.5659H312.01V43.2537H315.322ZM315.322 46.5659V49.878H312.01V46.5659H315.322ZM315.322 49.878V53.1902H312.01V49.878H315.322ZM315.322 53.1902V56.5024H312.01V53.1902H315.322ZM315.322 56.5024V59.8146H312.01V56.5024H315.322ZM315.322 59.8146V63.1268H312.01V59.8146H315.322ZM318.634 63.1268V66.439H315.322V63.1268H318.634ZM321.946 63.1268V66.439H318.634V63.1268H321.946ZM321.946 59.8146V63.1268H318.634V59.8146H321.946ZM321.946 56.5024V59.8146H318.634V56.5024H321.946ZM321.946 53.1902V56.5024H318.634V53.1902H321.946ZM321.946 49.878V53.1902H318.634V49.878H321.946ZM318.634 49.878V53.1902H315.322V49.878H318.634ZM318.634 46.5659V49.878H315.322V46.5659H318.634ZM318.634 43.2537V46.5659H315.322V43.2537H318.634ZM318.634 39.9415V43.2537H315.322V39.9415H318.634ZM321.946 39.9415V43.2537H318.634V39.9415H321.946ZM321.946 43.2537V46.5659H318.634V43.2537H321.946ZM321.946 46.5659V49.878H318.634V46.5659H321.946ZM318.634 56.5024V59.8146H315.322V56.5024H318.634ZM318.634 59.8146V63.1268H315.322V59.8146H318.634ZM318.634 53.1902V56.5024H315.322V53.1902H318.634ZM345.132 69.7512V73.0634H341.819V69.7512H345.132ZM341.819 79.6878V83H338.507V79.6878H341.819ZM338.507 79.6878V83H335.195V79.6878H338.507ZM335.195 79.6878V83H331.883V79.6878H335.195ZM331.883 79.6878V83H328.571V79.6878H331.883ZM328.571 79.6878V83H325.258V79.6878H328.571ZM325.258 79.6878V83H321.946V79.6878H325.258ZM328.571 76.3756V79.6878H325.258V76.3756H328.571ZM331.883 76.3756V79.6878H328.571V76.3756H331.883ZM335.195 76.3756V79.6878H331.883V76.3756H335.195ZM338.507 76.3756V79.6878H335.195V76.3756H338.507ZM341.819 76.3756V79.6878H338.507V76.3756H341.819ZM345.132 76.3756V79.6878H341.819V76.3756H345.132ZM345.132 73.0634V76.3756H341.819V73.0634H345.132ZM341.819 73.0634V76.3756H338.507V73.0634H341.819ZM338.507 73.0634V76.3756H335.195V73.0634H338.507ZM335.195 73.0634V76.3756H331.883V73.0634H335.195ZM331.883 73.0634V76.3756H328.571V73.0634H331.883ZM328.571 73.0634V76.3756H325.258V73.0634H328.571ZM325.258 76.3756V79.6878H321.946V76.3756H325.258ZM321.946 76.3756V79.6878H318.634V76.3756H321.946ZM318.634 76.3756V79.6878H315.322V76.3756H318.634ZM318.634 73.0634V76.3756H315.322V73.0634H318.634ZM315.322 73.0634V76.3756H312.01V73.0634H315.322ZM315.322 69.7512V73.0634H312.01V69.7512H315.322ZM318.634 69.7512V73.0634H315.322V69.7512H318.634ZM321.946 69.7512V73.0634H318.634V69.7512H321.946ZM325.258 69.7512V73.0634H321.946V69.7512H325.258ZM328.571 69.7512V73.0634H325.258V69.7512H328.571ZM331.883 69.7512V73.0634H328.571V69.7512H331.883ZM335.195 69.7512V73.0634H331.883V69.7512H335.195ZM338.507 69.7512V73.0634H335.195V69.7512H338.507ZM341.819 69.7512V73.0634H338.507V69.7512H341.819ZM325.258 73.0634V76.3756H321.946V73.0634H325.258ZM321.946 73.0634V76.3756H318.634V73.0634H321.946ZM348.444 73.0634V76.3756H345.132V73.0634H348.444ZM348.444 69.7512V73.0634H345.132V69.7512H348.444ZM348.444 66.439V69.7512H345.132V66.439H348.444ZM348.444 63.1268V66.439H345.132V63.1268H348.444ZM348.444 59.8146V63.1268H345.132V59.8146H348.444ZM348.444 56.5024V59.8146H345.132V56.5024H348.444ZM348.444 53.1902V56.5024H345.132V53.1902H348.444ZM348.444 49.878V53.1902H345.132V49.878H348.444ZM348.444 46.5659V49.878H345.132V46.5659H348.444ZM348.444 43.2537V46.5659H345.132V43.2537H348.444ZM348.444 39.9415V43.2537H345.132V39.9415H348.444ZM348.444 36.6293V39.9415H345.132V36.6293H348.444ZM348.444 33.3171V36.6293H345.132V33.3171H348.444ZM351.756 33.3171V36.6293H348.444V33.3171H351.756ZM351.756 36.6293V39.9415H348.444V36.6293H351.756ZM351.756 39.9415V43.2537H348.444V39.9415H351.756ZM351.756 43.2537V46.5659H348.444V43.2537H351.756ZM351.756 46.5659V49.878H348.444V46.5659H351.756ZM351.756 49.878V53.1902H348.444V49.878H351.756ZM351.756 53.1902V56.5024H348.444V53.1902H351.756ZM355.068 56.5024V59.8146H351.756V56.5024H355.068ZM355.068 59.8146V63.1268H351.756V59.8146H355.068ZM355.068 63.1268V66.439H351.756V63.1268H355.068ZM355.068 66.439V69.7512H351.756V66.439H355.068ZM355.068 69.7512V73.0634H351.756V69.7512H355.068ZM355.068 73.0634V76.3756H351.756V73.0634H355.068ZM355.068 76.3756V79.6878H351.756V76.3756H355.068ZM355.068 79.6878V83H351.756V79.6878H355.068ZM358.38 79.6878V83H355.068V79.6878H358.38ZM361.692 79.6878V83H358.38V79.6878H361.692ZM361.692 76.3756V79.6878H358.38V76.3756H361.692ZM361.692 73.0634V76.3756H358.38V73.0634H361.692ZM361.692 69.7512V73.0634H358.38V69.7512H361.692ZM361.692 66.439V69.7512H358.38V66.439H361.692ZM361.692 63.1268V66.439H358.38V63.1268H361.692ZM361.692 59.8146V63.1268H358.38V59.8146H361.692ZM361.692 56.5024V59.8146H358.38V56.5024H361.692ZM358.38 56.5024V59.8146H355.068V56.5024H358.38ZM358.38 53.1902V56.5024H355.068V53.1902H358.38ZM358.38 59.8146V63.1268H355.068V59.8146H358.38ZM358.38 63.1268V66.439H355.068V63.1268H358.38ZM358.38 66.439V69.7512H355.068V66.439H358.38ZM358.38 69.7512V73.0634H355.068V69.7512H358.38ZM358.38 73.0634V76.3756H355.068V73.0634H358.38ZM358.38 76.3756V79.6878H355.068V76.3756H358.38ZM351.756 73.0634V76.3756H348.444V73.0634H351.756ZM351.756 69.7512V73.0634H348.444V69.7512H351.756ZM351.756 66.439V69.7512H348.444V66.439H351.756ZM351.756 63.1268V66.439H348.444V63.1268H351.756ZM351.756 59.8146V63.1268H348.444V59.8146H351.756ZM351.756 56.5024V59.8146H348.444V56.5024H351.756ZM348.444 0.195118V3.50732H345.132V0.195118H348.444ZM348.444 3.50732V6.81951H345.132V3.50732H348.444ZM348.444 6.81951V10.1317H345.132V6.81951H348.444ZM348.444 10.1317V13.4439H345.132V10.1317H348.444ZM348.444 13.4439V16.7561H345.132V13.4439H348.444ZM348.444 16.7561V20.0683H345.132V16.7561H348.444ZM348.444 23.3805V26.6927H345.132V23.3805H348.444ZM348.444 30.0049V33.3171H345.132V30.0049H348.444ZM358.38 0.195118V3.50732H355.068V0.195118H358.38ZM358.38 3.50732V6.81951H355.068V3.50732H358.38ZM358.38 6.81951V10.1317H355.068V6.81951H358.38ZM358.38 10.1317V13.4439H355.068V10.1317H358.38ZM358.38 13.4439V16.7561H355.068V13.4439H358.38ZM358.38 16.7561V20.0683H355.068V16.7561H358.38ZM358.38 23.3805V26.6927H355.068V23.3805H358.38ZM358.38 26.6927V30.0049H355.068V26.6927H358.38ZM358.38 30.0049V33.3171H355.068V30.0049H358.38ZM358.38 36.6293V39.9415H355.068V36.6293H358.38ZM358.38 39.9415V43.2537H355.068V39.9415H358.38ZM358.38 43.2537V46.5659H355.068V43.2537H358.38ZM361.692 46.5659V49.878H358.38V46.5659H361.692ZM361.692 49.878V53.1902H358.38V49.878H361.692ZM361.692 53.1902V56.5024H358.38V53.1902H361.692ZM361.692 43.2537V46.5659H358.38V43.2537H361.692ZM361.692 39.9415V43.2537H358.38V39.9415H361.692ZM361.692 33.3171V36.6293H358.38V33.3171H361.692ZM361.692 30.0049V33.3171H358.38V30.0049H361.692ZM361.692 26.6927V30.0049H358.38V26.6927H361.692ZM361.692 23.3805V26.6927H358.38V23.3805H361.692ZM361.692 20.0683V23.3805H358.38V20.0683H361.692ZM361.692 16.7561V20.0683H358.38V16.7561H361.692ZM361.692 13.4439V16.7561H358.38V13.4439H361.692ZM358.38 20.0683V23.3805H355.068V20.0683H358.38ZM361.692 10.1317V13.4439H358.38V10.1317H361.692ZM361.692 6.81951V10.1317H358.38V6.81951H361.692ZM361.692 3.50732V6.81951H358.38V3.50732H361.692ZM361.692 0.195118V3.50732H358.38V0.195118H361.692ZM355.068 0.195118V3.50732H351.756V0.195118H355.068ZM351.756 0.195118V3.50732H348.444V0.195118H351.756ZM351.756 3.50732V6.81951H348.444V3.50732H351.756ZM355.068 3.50732V6.81951H351.756V3.50732H355.068ZM355.068 6.81951V10.1317H351.756V6.81951H355.068ZM355.068 10.1317V13.4439H351.756V10.1317H355.068ZM355.068 13.4439V16.7561H351.756V13.4439H355.068ZM355.068 16.7561V20.0683H351.756V16.7561H355.068ZM355.068 20.0683V23.3805H351.756V20.0683H355.068ZM355.068 23.3805V26.6927H351.756V23.3805H355.068ZM351.756 26.6927V30.0049H348.444V26.6927H351.756ZM351.756 30.0049V33.3171H348.444V30.0049H351.756ZM351.756 23.3805V26.6927H348.444V23.3805H351.756ZM351.756 20.0683V23.3805H348.444V20.0683H351.756ZM351.756 16.7561V20.0683H348.444V16.7561H351.756ZM351.756 13.4439V16.7561H348.444V13.4439H351.756ZM351.756 10.1317V13.4439H348.444V10.1317H351.756ZM351.756 6.81951V10.1317H348.444V6.81951H351.756ZM355.068 30.0049V33.3171H351.756V30.0049H355.068ZM355.068 36.6293V39.9415H351.756V36.6293H355.068ZM355.068 39.9415V43.2537H351.756V39.9415H355.068ZM355.068 43.2537V46.5659H351.756V43.2537H355.068ZM355.068 46.5659V49.878H351.756V46.5659H355.068ZM355.068 49.878V53.1902H351.756V49.878H355.068ZM355.068 53.1902V56.5024H351.756V53.1902H355.068ZM358.38 49.878V53.1902H355.068V49.878H358.38ZM358.38 46.5659V49.878H355.068V46.5659H358.38ZM348.444 20.0683V23.3805H345.132V20.0683H348.444ZM361.692 36.6293V39.9415H358.38V36.6293H361.692ZM348.444 26.6927V30.0049H345.132V26.6927H348.444ZM355.068 26.6927V30.0049H351.756V26.6927H355.068ZM355.068 33.3171V36.6293H351.756V33.3171H355.068ZM358.38 33.3171V36.6293H355.068V33.3171H358.38ZM348.444 76.3756V79.6878H345.132V76.3756H348.444ZM351.756 76.3756V79.6878H348.444V76.3756H351.756ZM351.756 79.6878V83H348.444V79.6878H351.756ZM345.132 20.0683V23.3805H341.819V20.0683H345.132ZM345.132 66.439V69.7512H341.819V66.439H345.132ZM348.444 79.6878V83H345.132V79.6878H348.444ZM378.315 20.0683V23.3805H375.003V20.0683H378.315ZM381.627 20.0683V23.3805H378.315V20.0683H381.627ZM384.939 20.0683V23.3805H381.627V20.0683H384.939ZM388.251 20.0683V23.3805H384.939V20.0683H388.251ZM388.251 23.3805V26.6927H384.939V23.3805H388.251ZM391.564 23.3805V26.6927H388.251V23.3805H391.564ZM391.564 26.6927V30.0049H388.251V26.6927H391.564ZM391.564 20.0683V23.3805H388.251V20.0683H391.564ZM391.564 30.0049V33.3171H388.251V30.0049H391.564ZM391.564 33.3171V36.6293H388.251V33.3171H391.564ZM391.564 36.6293V39.9415H388.251V36.6293H391.564ZM391.564 39.9415V43.2537H388.251V39.9415H391.564ZM391.564 43.2537V46.5659H388.251V43.2537H391.564ZM391.564 46.5659V49.878H388.251V46.5659H391.564ZM391.564 49.878V53.1902H388.251V49.878H391.564ZM391.564 53.1902V56.5024H388.251V53.1902H391.564ZM391.564 56.5024V59.8146H388.251V56.5024H391.564ZM388.251 56.5024V59.8146H384.939V56.5024H388.251ZM384.939 59.8146V63.1268H381.627V59.8146H384.939ZM381.627 59.8146V63.1268H378.315V59.8146H381.627ZM378.315 59.8146V63.1268H375.003V59.8146H378.315ZM378.315 56.5024V59.8146H375.003V56.5024H378.315ZM378.315 53.1902V56.5024H375.003V53.1902H378.315ZM378.315 49.878V53.1902H375.003V49.878H378.315ZM378.315 46.5659V49.878H375.003V46.5659H378.315ZM381.627 46.5659V49.878H378.315V46.5659H381.627ZM381.627 43.2537V46.5659H378.315V43.2537H381.627ZM381.627 39.9415V43.2537H378.315V39.9415H381.627ZM381.627 36.6293V39.9415H378.315V36.6293H381.627ZM381.627 33.3171V36.6293H378.315V33.3171H381.627ZM381.627 30.0049V33.3171H378.315V30.0049H381.627ZM381.627 26.6927V30.0049H378.315V26.6927H381.627ZM381.627 23.3805V26.6927H378.315V23.3805H381.627ZM378.315 23.3805V26.6927H375.003V23.3805H378.315ZM378.315 26.6927V30.0049H375.003V26.6927H378.315ZM378.315 30.0049V33.3171H375.003V30.0049H378.315ZM378.315 33.3171V36.6293H375.003V33.3171H378.315ZM378.315 36.6293V39.9415H375.003V36.6293H378.315ZM378.315 39.9415V43.2537H375.003V39.9415H378.315ZM378.315 43.2537V46.5659H375.003V43.2537H378.315ZM384.939 36.6293V39.9415H381.627V36.6293H384.939ZM384.939 33.3171V36.6293H381.627V33.3171H384.939ZM384.939 30.0049V33.3171H381.627V30.0049H384.939ZM384.939 26.6927V30.0049H381.627V26.6927H384.939ZM384.939 23.3805V26.6927H381.627V23.3805H384.939ZM388.251 36.6293V39.9415H384.939V36.6293H388.251ZM388.251 39.9415V43.2537H384.939V39.9415H388.251ZM388.251 33.3171V36.6293H384.939V33.3171H388.251ZM388.251 30.0049V33.3171H384.939V30.0049H388.251ZM388.251 26.6927V30.0049H384.939V26.6927H388.251ZM384.939 46.5659V49.878H381.627V46.5659H384.939ZM384.939 43.2537V46.5659H381.627V43.2537H384.939ZM384.939 39.9415V43.2537H381.627V39.9415H384.939ZM388.251 43.2537V46.5659H384.939V43.2537H388.251ZM388.251 46.5659V49.878H384.939V46.5659H388.251ZM388.251 49.878V53.1902H384.939V49.878H388.251ZM384.939 53.1902V56.5024H381.627V53.1902H384.939ZM384.939 56.5024V59.8146H381.627V56.5024H384.939ZM384.939 49.878V53.1902H381.627V49.878H384.939ZM381.627 49.878V53.1902H378.315V49.878H381.627ZM381.627 53.1902V56.5024H378.315V53.1902H381.627ZM381.627 56.5024V59.8146H378.315V56.5024H381.627ZM388.251 53.1902V56.5024H384.939V53.1902H388.251ZM384.939 63.1268V66.439H381.627V63.1268H384.939ZM381.627 63.1268V66.439H378.315V63.1268H381.627ZM388.251 63.1268V66.439H384.939V63.1268H388.251ZM388.251 59.8146V63.1268H384.939V59.8146H388.251ZM391.564 59.8146V63.1268H388.251V59.8146H391.564ZM394.876 59.8146V63.1268H391.564V59.8146H394.876ZM394.876 63.1268V66.439H391.564V63.1268H394.876ZM391.564 63.1268V66.439H388.251V63.1268H391.564ZM398.188 63.1268V66.439H394.876V63.1268H398.188ZM384.939 66.439V69.7512H381.627V66.439H384.939ZM388.251 66.439V69.7512H384.939V66.439H388.251ZM391.564 66.439V69.7512H388.251V66.439H391.564ZM394.876 66.439V69.7512H391.564V66.439H394.876ZM398.188 66.439V69.7512H394.876V66.439H398.188ZM401.5 66.439V69.7512H398.188V66.439H401.5ZM404.812 66.439V69.7512H401.5V66.439H404.812ZM408.125 66.439V69.7512H404.812V66.439H408.125ZM411.437 66.439V69.7512H408.125V66.439H411.437ZM414.749 66.439V69.7512H411.437V66.439H414.749ZM418.061 66.439V69.7512H414.749V66.439H418.061ZM421.373 66.439V69.7512H418.061V66.439H421.373ZM418.061 63.1268V66.439H414.749V63.1268H418.061ZM414.749 63.1268V66.439H411.437V63.1268H414.749ZM411.437 63.1268V66.439H408.125V63.1268H411.437ZM408.125 63.1268V66.439H404.812V63.1268H408.125ZM411.437 59.8146V63.1268H408.125V59.8146H411.437ZM414.749 59.8146V63.1268H411.437V59.8146H414.749ZM418.061 59.8146V63.1268H414.749V59.8146H418.061ZM421.373 59.8146V63.1268H418.061V59.8146H421.373ZM424.686 59.8146V63.1268H421.373V59.8146H424.686ZM424.686 63.1268V66.439H421.373V63.1268H424.686ZM421.373 63.1268V66.439H418.061V63.1268H421.373ZM427.998 59.8146V63.1268H424.686V59.8146H427.998ZM398.188 79.6878V83H394.876V79.6878H398.188ZM398.188 76.3756V79.6878H394.876V76.3756H398.188ZM398.188 73.0634V76.3756H394.876V73.0634H398.188ZM401.5 73.0634V76.3756H398.188V73.0634H401.5ZM401.5 69.7512V73.0634H398.188V69.7512H401.5ZM404.812 69.7512V73.0634H401.5V69.7512H404.812ZM408.125 69.7512V73.0634H404.812V69.7512H408.125ZM408.125 73.0634V76.3756H404.812V73.0634H408.125ZM408.125 76.3756V79.6878H404.812V76.3756H408.125ZM408.125 79.6878V83H404.812V79.6878H408.125ZM404.812 79.6878V83H401.5V79.6878H404.812ZM401.5 79.6878V83H398.188V79.6878H401.5ZM401.5 76.3756V79.6878H398.188V76.3756H401.5ZM404.812 73.0634V76.3756H401.5V73.0634H404.812ZM404.812 76.3756V79.6878H401.5V76.3756H404.812ZM411.437 73.0634V76.3756H408.125V73.0634H411.437ZM411.437 69.7512V73.0634H408.125V69.7512H411.437ZM414.749 69.7512V73.0634H411.437V69.7512H414.749ZM418.061 69.7512V73.0634H414.749V69.7512H418.061ZM414.749 73.0634V76.3756H411.437V73.0634H414.749ZM411.437 76.3756V79.6878H408.125V76.3756H411.437ZM388.251 69.7512V73.0634H384.939V69.7512H388.251ZM391.564 69.7512V73.0634H388.251V69.7512H391.564ZM391.564 73.0634V76.3756H388.251V73.0634H391.564ZM394.876 73.0634V76.3756H391.564V73.0634H394.876ZM394.876 76.3756V79.6878H391.564V76.3756H394.876ZM398.188 69.7512V73.0634H394.876V69.7512H398.188ZM394.876 69.7512V73.0634H391.564V69.7512H394.876ZM414.749 56.5024V59.8146H411.437V56.5024H414.749ZM414.749 53.1902V56.5024H411.437V53.1902H414.749ZM414.749 49.878V53.1902H411.437V49.878H414.749ZM414.749 46.5659V49.878H411.437V46.5659H414.749ZM418.061 46.5659V49.878H414.749V46.5659H418.061ZM421.373 46.5659V49.878H418.061V46.5659H421.373ZM424.686 46.5659V49.878H421.373V46.5659H424.686ZM427.998 46.5659V49.878H424.686V46.5659H427.998ZM427.998 49.878V53.1902H424.686V49.878H427.998ZM427.998 53.1902V56.5024H424.686V53.1902H427.998ZM427.998 56.5024V59.8146H424.686V56.5024H427.998ZM424.686 56.5024V59.8146H421.373V56.5024H424.686ZM421.373 56.5024V59.8146H418.061V56.5024H421.373ZM418.061 56.5024V59.8146H414.749V56.5024H418.061ZM421.373 53.1902V56.5024H418.061V53.1902H421.373ZM424.686 53.1902V56.5024H421.373V53.1902H424.686ZM424.686 49.878V53.1902H421.373V49.878H424.686ZM421.373 49.878V53.1902H418.061V49.878H421.373ZM418.061 49.878V53.1902H414.749V49.878H418.061ZM418.061 53.1902V56.5024H414.749V53.1902H418.061ZM414.749 43.2537V46.5659H411.437V43.2537H414.749ZM414.749 39.9415V43.2537H411.437V39.9415H414.749ZM414.749 36.6293V39.9415H411.437V36.6293H414.749ZM414.749 33.3171V36.6293H411.437V33.3171H414.749ZM414.749 30.0049V33.3171H411.437V30.0049H414.749ZM414.749 26.6927V30.0049H411.437V26.6927H414.749ZM414.749 23.3805V26.6927H411.437V23.3805H414.749ZM414.749 20.0683V23.3805H411.437V20.0683H414.749ZM418.061 23.3805V26.6927H414.749V23.3805H418.061ZM418.061 20.0683V23.3805H414.749V20.0683H418.061ZM421.373 20.0683V23.3805H418.061V20.0683H421.373ZM424.686 20.0683V23.3805H421.373V20.0683H424.686ZM424.686 23.3805V26.6927H421.373V23.3805H424.686ZM424.686 26.6927V30.0049H421.373V26.6927H424.686ZM427.998 26.6927V30.0049H424.686V26.6927H427.998ZM427.998 30.0049V33.3171H424.686V30.0049H427.998ZM427.998 33.3171V36.6293H424.686V33.3171H427.998ZM427.998 36.6293V39.9415H424.686V36.6293H427.998ZM427.998 39.9415V43.2537H424.686V39.9415H427.998ZM427.998 43.2537V46.5659H424.686V43.2537H427.998ZM427.998 23.3805V26.6927H424.686V23.3805H427.998ZM427.998 20.0683V23.3805H424.686V20.0683H427.998ZM421.373 23.3805V26.6927H418.061V23.3805H421.373ZM421.373 26.6927V30.0049H418.061V26.6927H421.373ZM421.373 30.0049V33.3171H418.061V30.0049H421.373ZM421.373 33.3171V36.6293H418.061V33.3171H421.373ZM421.373 36.6293V39.9415H418.061V36.6293H421.373ZM421.373 39.9415V43.2537H418.061V39.9415H421.373ZM418.061 39.9415V43.2537H414.749V39.9415H418.061ZM418.061 43.2537V46.5659H414.749V43.2537H418.061ZM418.061 36.6293V39.9415H414.749V36.6293H418.061ZM418.061 33.3171V36.6293H414.749V33.3171H418.061ZM418.061 30.0049V33.3171H414.749V30.0049H418.061ZM418.061 26.6927V30.0049H414.749V26.6927H418.061ZM424.686 30.0049V33.3171H421.373V30.0049H424.686ZM424.686 33.3171V36.6293H421.373V33.3171H424.686ZM424.686 36.6293V39.9415H421.373V36.6293H424.686ZM424.686 39.9415V43.2537H421.373V39.9415H424.686ZM424.686 43.2537V46.5659H421.373V43.2537H424.686ZM421.373 43.2537V46.5659H418.061V43.2537H421.373ZM391.564 79.6878V83H388.251V79.6878H391.564ZM394.876 79.6878V83H391.564V79.6878H394.876ZM398.188 83V86.3122H394.876V83H398.188ZM401.5 83V86.3122H398.188V83H401.5ZM404.812 83V86.3122H401.5V83H404.812ZM394.876 83V86.3122H391.564V83H394.876ZM391.564 83V86.3122H388.251V83H391.564ZM388.251 83V86.3122H384.939V83H388.251ZM388.251 86.3122V89.6244H384.939V86.3122H388.251ZM384.939 86.3122V89.6244H381.627V86.3122H384.939ZM384.939 89.6244V92.9366H381.627V89.6244H384.939ZM381.627 89.6244V92.9366H378.315V89.6244H381.627ZM381.627 92.9366V96.2488H378.315V92.9366H381.627ZM381.627 96.2488V99.561H378.315V96.2488H381.627ZM381.627 99.561V102.873H378.315V99.561H381.627ZM384.939 99.561V102.873H381.627V99.561H384.939ZM388.251 99.561V102.873H384.939V99.561H388.251ZM388.251 96.2488V99.561H384.939V96.2488H388.251ZM388.251 92.9366V96.2488H384.939V92.9366H388.251ZM384.939 92.9366V96.2488H381.627V92.9366H384.939ZM384.939 96.2488V99.561H381.627V96.2488H384.939ZM391.564 92.9366V96.2488H388.251V92.9366H391.564ZM391.564 96.2488V99.561H388.251V96.2488H391.564ZM394.876 92.9366V96.2488H391.564V92.9366H394.876ZM394.876 89.6244V92.9366H391.564V89.6244H394.876ZM398.188 89.6244V92.9366H394.876V89.6244H398.188ZM398.188 86.3122V89.6244H394.876V86.3122H398.188ZM401.5 86.3122V89.6244H398.188V86.3122H401.5ZM394.876 86.3122V89.6244H391.564V86.3122H394.876ZM391.564 86.3122V89.6244H388.251V86.3122H391.564ZM391.564 89.6244V92.9366H388.251V89.6244H391.564ZM388.251 89.6244V92.9366H384.939V89.6244H388.251Z" fill="#EFEFEF"/>
</svg>
